<svg width="1988" height="1638" viewBox="0 0 1988 1638" version="1.1" xmlns="http://www.w3.org/2000/svg" xmlns:xlink="http://www.w3.org/1999/xlink">
<title>Frame</title>
<desc>Created using Figma</desc>
<g id="Canvas" transform="matrix(2 0 0 2 1130 884)">
<clipPath id="clip-0" clip-rule="evenodd">
<path d="M -565 -442L 429 -442L 429 377L -565 377L -565 -442Z" fill="#FFFFFF"/>
</clipPath>
<g id="Frame" clip-path="url(#clip-0)">
<path d="M -565 -442L 429 -442L 429 377L -565 377L -565 -442Z" fill="#FFFFFF"/>
<g id="Rectangle">
<use xlink:href="#path0_fill" transform="translate(-183 -395)" fill="#2D9CDB"/>
</g>
<g id="Rectangle">
<use xlink:href="#path0_fill" transform="translate(74 -197)" fill="#2D9CDB"/>
</g>
<g id="Rectangle">
<use xlink:href="#path0_fill" transform="translate(-441 -197)" fill="#2D9CDB"/>
</g>
<g id="Rectangle">
<use xlink:href="#path0_fill" transform="translate(-183 0)" fill="#2D9CDB"/>
</g>
<g id="Rectangle">
<use xlink:href="#path0_fill" transform="translate(-441 192)" fill="#219653"/>
</g>
<g id="Group">
<g id="Vector">
<use xlink:href="#path1_stroke" transform="translate(49 -344)"/>
</g>
<g id="Vector 2">
<use xlink:href="#path2_stroke" transform="translate(186.697 -222)"/>
</g>
</g>
<g id="Group">
<g id="Vector">
<use xlink:href="#path3_stroke" transform="matrix(-4.37114e-08 1 -1 -4.37114e-08 201 -94)"/>
</g>
<g id="Vector 2">
<use xlink:href="#path4_stroke" transform="matrix(-4.37114e-08 1 -1 -4.37114e-08 79 44.5526)"/>
</g>
</g>
<g id="Group">
<g id="Vector">
<use xlink:href="#path5_stroke" transform="matrix(-4.37114e-08 1 -1 -4.37114e-08 -67 103)"/>
</g>
<g id="Vector 2">
<use xlink:href="#path6_stroke" transform="matrix(-4.37114e-08 1 -1 -4.37114e-08 -189 233)"/>
</g>
</g>
<g id="Group">
<g id="Vector">
<use xlink:href="#path7_stroke" transform="matrix(-4.37114e-08 -1 1 -4.37114e-08 -325 -197)"/>
</g>
<g id="Vector 2">
<use xlink:href="#path8_stroke" transform="matrix(-4.37114e-08 -1 1 -4.37114e-08 -203 -330.421)"/>
</g>
</g>
<g id="Group">
<g id="Vector">
<use xlink:href="#path9_stroke" transform="matrix(-1 8.74228e-08 -8.74228e-08 -1 -183 58)"/>
</g>
<g id="Vector 2">
<use xlink:href="#path10_stroke" transform="matrix(-1 8.33701e-08 -9.12462e-08 -1 -312.145 -63.9999)"/>
</g>
</g>
<g id="Line">
<use xlink:href="#path11_stroke" transform="matrix(0.00421791 0.999991 -0.999993 0.00385471 -325 -70)"/>
</g>
<g id="Data Exploration">
<use xlink:href="#path12_fill" transform="translate(-386 -174)" fill="#F2F2F2"/>
</g>
<g id="Feature Engineering">
<use xlink:href="#path13_fill" transform="translate(-131 -372)" fill="#F2F2F2"/>
</g>
<g id="Feature Selection">
<use xlink:href="#path14_fill" transform="translate(150 -174)" fill="#F2F2F2"/>
</g>
<g id="Model Selection/Tuning">
<use xlink:href="#path15_fill" transform="translate(-159 23)" fill="#F2F2F2"/>
</g>
<g id="Submit to Kaggle">
<use xlink:href="#path16_fill" transform="translate(-375 220)" fill="#F2F2F2"/>
</g>
</g>
</g>
<defs>
<path id="path0_fill" d="M 0 0L 232 0L 232 103L 0 103L 0 0Z"/>
<path id="path1_stroke" d="M 0 0.078551C 0.082793 1.57626 0.0825487 1.57628 0.0825503 1.57628C 0.0828788 1.57626 0.083125 1.57625 0.0837803 1.57621C 0.0854186 1.57612 0.0873784 1.57602 0.090643 1.57585C 0.0978292 1.57547 0.107588 1.57496 0.121872 1.57425C 0.15176 1.57275 0.194389 1.5707 0.253482 1.56807C 0.37434 1.56268 0.550071 1.55549 0.786433 1.54762C 1.26461 1.53165 1.9622 1.51374 2.87619 1.50513C 4.71552 1.48767 7.369 1.50791 10.7104 1.66005C 17.4177 1.96458 26.7469 2.78898 37.4702 4.89427C 58.9705 9.10742 85.6326 18.3092 107.164 38.638L 109.221 36.4543C 87.1864 15.743 59.752 6.21099 38.0476 1.95036C 27.1685 -0.181244 17.6182 -1.02872 10.8467 -1.33685C 7.44868 -1.49104 4.71289 -1.51233 2.8478 -1.49473C 1.90957 -1.4858 1.17617 -1.46704 0.686403 -1.45072C 0.438793 -1.44244 0.246315 -1.43459 0.119957 -1.42896C 0.055442 -1.42608 0.00471114 -1.42364 -0.0278583 -1.42201C -0.0448036 -1.42116 -0.058548 -1.42045 -0.0670579 -1.42001C -0.0716414 -1.41976 -0.0755779 -1.41955 -0.0778738 -1.41943C -0.0791856 -1.41936 -0.0804161 -1.41929 -0.0810724 -1.41926C -0.0820557 -1.4192 -0.082793 -1.41916 0 0.078551ZM 107.164 38.638C 128.751 58.9316 138.843 81.9256 143.646 100.048C 146.043 109.073 147.08 116.775 147.529 122.291C 147.753 125.033 147.826 127.189 147.844 128.686C 147.853 129.427 147.848 129.987 147.841 130.374C 147.838 130.564 147.834 130.703 147.831 130.799C 147.829 130.846 147.828 130.879 147.827 130.902C 147.826 130.913 147.826 130.92 147.826 130.926C 147.826 130.928 147.826 130.929 147.826 130.931C 147.826 130.931 147.826 130.931 147.826 130.931C 147.826 130.931 147.826 130.93 149.324 131C 150.822 131.07 150.822 131.069 150.823 131.068C 150.823 131.067 150.823 131.066 150.823 131.065C 150.823 131.063 150.823 131.059 150.823 131.055C 150.823 131.048 150.824 131.036 150.824 131.021C 150.826 130.994 150.827 130.951 150.829 130.897C 150.832 130.793 150.837 130.633 150.841 130.429C 150.848 130.027 150.853 129.421 150.844 128.649C 150.825 127.12 150.748 124.86 150.519 122.047C 150.063 116.453 148.986 108.487 146.546 99.2785C 141.675 80.9338 131.202 57.2009 109.221 36.4543L 107.164 38.638Z"/>
<path id="path2_stroke" d="M 12.0828 9L 10.8881 10.604L 12.1282 11.5276L 13.3343 10.5601L 12.0828 9ZM -1.19471 1.60395L 10.8881 10.604L 13.2776 7.39605L 1.19471 -1.60395L -1.19471 1.60395ZM 13.3343 10.5601L 24.5541 1.5601L 22.0512 -1.5601L 10.8314 7.4399L 13.3343 10.5601Z"/>
<path id="path3_stroke" d="M 0 0.078551C 0.0822835 1.57629 0.0820437 1.57631 0.0820514 1.57631C 0.082384 1.57629 0.0826377 1.57627 0.0833011 1.57624C 0.0849537 1.57615 0.0869379 1.57604 0.0902308 1.57587C 0.0974698 1.57549 0.107314 1.57499 0.121703 1.57427C 0.151793 1.57278 0.194737 1.57072 0.25423 1.56809C 0.375873 1.5627 0.552799 1.5555 0.790698 1.54763C 1.27192 1.53166 1.97406 1.51374 2.89388 1.50514C 4.7448 1.48767 7.41527 1.50791 10.7778 1.66007C 17.5272 1.96462 26.9156 2.78916 37.7064 4.89461C 59.3415 9.10802 86.1725 18.3112 107.84 38.6412L 109.89 36.4512C 87.7199 15.7411 60.1185 6.21039 38.2804 1.95002C 27.3347 -0.181423 17.7264 -1.02876 10.9132 -1.33687C 7.49446 -1.49104 4.74217 -1.51233 2.86566 -1.49473C 1.92176 -1.48581 1.18402 -1.46705 0.691285 -1.45073C 0.442207 -1.44246 0.248637 -1.4346 0.121528 -1.42898C 0.0566458 -1.4261 0.00564984 -1.42366 -0.0271053 -1.42204C -0.0441395 -1.42119 -0.0579447 -1.42048 -0.0664993 -1.42003C -0.0711031 -1.41979 -0.0750518 -1.41958 -0.077358 -1.41946C -0.0786739 -1.41939 -0.0799059 -1.41932 -0.0805643 -1.41928C -0.0815476 -1.41923 -0.0822835 -1.41919 0 0.078551ZM 107.84 38.6412C 129.561 58.9349 139.716 81.9283 144.548 100.05C 146.96 109.075 148.003 116.776 148.455 122.292C 148.68 125.034 148.753 127.189 148.771 128.686C 148.781 129.427 148.776 129.987 148.769 130.374C 148.765 130.563 148.761 130.702 148.758 130.799C 148.757 130.846 148.755 130.878 148.754 130.902C 148.754 130.913 148.754 130.92 148.753 130.925C 148.753 130.928 148.753 130.929 148.753 130.93C 148.753 130.93 148.753 130.93 148.753 130.931C 148.753 130.93 148.753 130.93 150.252 131C 151.75 131.07 151.75 131.069 151.75 131.068C 151.75 131.068 151.75 131.066 151.75 131.065C 151.75 131.063 151.75 131.059 151.751 131.055C 151.751 131.048 151.751 131.036 151.752 131.022C 151.753 130.995 151.755 130.951 151.756 130.898C 151.76 130.794 151.764 130.633 151.768 130.429C 151.775 130.028 151.781 129.421 151.771 128.649C 151.752 127.119 151.675 124.86 151.445 122.047C 150.986 116.452 149.901 108.485 147.447 99.2763C 142.545 80.9311 132.006 57.1976 109.89 36.4512L 107.84 38.6412Z"/>
<path id="path4_stroke" d="M 12.1579 9L 10.9679 10.6075L 12.203 11.5218L 13.4046 10.5639L 12.1579 9ZM -1.18996 1.60748L 10.9679 10.6075L 13.3479 7.39251L 1.18996 -1.60748L -1.18996 1.60748ZM 13.4046 10.5639L 24.6941 1.56387L 22.2006 -1.56387L 10.9112 7.43613L 13.4046 10.5639Z"/>
<path id="path5_stroke" d="M 0 0.078551C 0.0876789 1.57599 0.0873921 1.576 0.0873374 1.57601C 0.0876288 1.57599 0.0878048 1.57598 0.0883859 1.57595C 0.0898949 1.57586 0.091632 1.57576 0.0946385 1.57559C 0.101347 1.57522 0.110332 1.57473 0.123665 1.57402C 0.151729 1.57254 0.19151 1.5705 0.246989 1.56789C 0.360775 1.56252 0.525721 1.55536 0.748224 1.54751C 1.19901 1.53157 1.85554 1.51371 2.71704 1.50513C 4.45207 1.48767 6.95249 1.50784 10.1039 1.65986C 16.4326 1.96417 25.2278 2.78721 35.343 4.89096C 55.631 9.10153 80.7723 18.2906 101.085 38.608L 103.204 36.4844C 82.386 15.7616 56.4549 6.21688 35.9532 1.95367C 25.6737 -0.17947 16.6449 -1.02831 10.2482 -1.33667C 7.03688 -1.49097 4.44928 -1.51233 2.68697 -1.49472C 1.7998 -1.48577 1.10533 -1.46697 0.642279 -1.45061C 0.407864 -1.44232 0.225185 -1.43442 0.105574 -1.42878C 0.0443553 -1.42589 -0.00400429 -1.42342 -0.0349067 -1.42178C -0.0510573 -1.42093 -0.0642618 -1.42021 -0.0723718 -1.41975C -0.0767747 -1.41951 -0.0806043 -1.41929 -0.0828096 -1.41917C -0.0840856 -1.41909 -0.0853037 -1.41902 -0.0859421 -1.41899C -0.0869266 -1.41893 -0.0876789 -1.41888 0 0.078551ZM 101.085 38.608C 121.464 58.901 130.994 81.901 135.53 100.028C 137.794 109.057 138.774 116.766 139.198 122.284C 139.409 125.028 139.478 127.187 139.495 128.685C 139.504 129.427 139.499 129.989 139.493 130.375C 139.489 130.566 139.486 130.705 139.483 130.802C 139.481 130.849 139.48 130.882 139.479 130.906C 139.479 130.917 139.479 130.924 139.478 130.929C 139.478 130.932 139.478 130.933 139.478 130.934C 139.478 130.935 139.478 130.935 139.478 130.935C 139.478 130.935 139.478 130.934 140.977 131C 142.475 131.066 142.475 131.065 142.475 131.064C 142.475 131.063 142.475 131.062 142.476 131.061C 142.476 131.059 142.476 131.055 142.476 131.051C 142.476 131.044 142.477 131.032 142.477 131.018C 142.478 130.991 142.48 130.948 142.481 130.895C 142.485 130.791 142.489 130.631 142.492 130.427C 142.499 130.026 142.504 129.422 142.495 128.65C 142.477 127.122 142.405 124.865 142.189 122.054C 141.759 116.462 140.742 108.502 138.44 99.2987C 133.843 80.9584 123.957 57.2315 103.204 36.4844L 101.085 38.608Z"/>
<path id="path6_stroke" d="M 11.4074 9L 10.1686 10.5702L 11.4543 11.5845L 12.7024 10.5241L 11.4074 9ZM -1.23879 1.57016L 10.1686 10.5702L 12.6462 7.42984L 1.23879 -1.57016L -1.23879 1.57016ZM 12.7024 10.5241L 23.295 1.52414L 20.705 -1.52414L 10.1124 7.47586L 12.7024 10.5241Z"/>
<path id="path7_stroke" d="M 0 0.078551C 0.0854382 1.57612 0.0851706 1.57613 0.0851413 1.57613C 0.0854494 1.57612 0.085657 1.5761 0.0862713 1.57607C 0.0878381 1.57598 0.0896749 1.57588 0.0927967 1.57571C 0.0997181 1.57534 0.109049 1.57484 0.122805 1.57413C 0.151681 1.57264 0.192731 1.57059 0.249819 1.56797C 0.36675 1.56259 0.536496 1.55542 0.765164 1.54756C 1.22813 1.53161 1.90292 1.51372 2.78776 1.50513C 4.56916 1.48767 7.13764 1.50787 10.3735 1.65995C 16.8705 1.96436 25.9031 2.78804 36.2887 4.8925C 57.1155 9.10427 82.9326 18.2992 103.787 38.6217L 105.878 36.4707C 84.5193 15.7531 57.92 6.21415 36.8838 1.95213C 26.3379 -0.180295 17.0774 -1.0285 10.5141 -1.33675C 7.21987 -1.491 4.56644 -1.51233 2.75846 -1.49473C 1.84861 -1.48579 1.13685 -1.467 0.661931 -1.45066C 0.421657 -1.44238 0.23463 -1.4345 0.112023 -1.42886C 0.049341 -1.42598 -6.91472e-05 -1.42352 -0.0317113 -1.42189C -0.0482141 -1.42104 -0.0616569 -1.42032 -0.0699441 -1.41987C -0.0744267 -1.41963 -0.0783029 -1.41941 -0.0805483 -1.41929C -0.0818399 -1.41922 -0.0830631 -1.41915 -0.0837093 -1.41911C -0.0846929 -1.41906 -0.0854382 -1.41901 0 0.078551ZM 103.787 38.6217C 124.703 58.9148 134.483 81.912 139.137 100.037C 141.461 109.064 142.466 116.77 142.9 122.287C 143.117 125.03 143.188 127.188 143.206 128.685C 143.215 129.427 143.21 129.988 143.203 130.375C 143.2 130.565 143.196 130.704 143.193 130.801C 143.191 130.848 143.19 130.881 143.189 130.904C 143.189 130.915 143.189 130.922 143.188 130.928C 143.188 130.93 143.188 130.931 143.188 130.933C 143.188 130.933 143.188 130.933 143.188 130.933C 143.188 130.933 143.188 130.933 144.687 131C 146.185 131.067 146.185 131.067 146.185 131.066C 146.185 131.065 146.185 131.064 146.185 131.063C 146.185 131.061 146.186 131.057 146.186 131.053C 146.186 131.046 146.187 131.034 146.187 131.019C 146.188 130.992 146.19 130.949 146.191 130.896C 146.195 130.792 146.199 130.632 146.203 130.428C 146.21 130.027 146.215 129.422 146.206 128.65C 146.187 127.121 146.113 124.863 145.891 122.051C 145.449 116.458 144.406 108.495 142.043 99.2897C 137.324 80.9474 127.177 57.2177 105.878 36.4707L 103.787 38.6217Z"/>
<path id="path8_stroke" d="M 11.7076 9L 10.4887 10.5856L 11.7538 11.5582L 12.983 10.5406L 11.7076 9ZM -1.21892 1.58563L 10.4887 10.5856L 12.9265 7.41437L 1.21892 -1.58563L -1.21892 1.58563ZM 12.983 10.5406L 23.8543 1.54058L 21.3036 -1.54058L 10.4322 7.45942L 12.983 10.5406Z"/>
<path id="path9_stroke" d="M 0 0.0785511C 0.0882576 1.57595 0.0879658 1.57597 0.0879047 1.57597C 0.0881918 1.57596 0.0883599 1.57595 0.0889326 1.57591C 0.0904271 1.57583 0.092139 1.57573 0.0951165 1.57556C 0.101772 1.57519 0.11067 1.5747 0.123896 1.57399C 0.151757 1.57251 0.19122 1.57048 0.246296 1.56787C 0.359295 1.56249 0.523039 1.55535 0.744001 1.5475C 1.19174 1.53156 1.8437 1.5137 2.69936 1.50513C 4.4228 1.48767 6.90619 1.50783 10.0365 1.65984C 16.3231 1.96412 25.0589 2.78699 35.1066 4.89056C 55.2598 9.10082 80.2322 18.2884 100.41 38.6045L 102.536 36.4879C 81.8527 15.7638 56.0887 6.2176 35.7207 1.95408C 25.5077 -0.179253 16.5367 -1.02826 10.1817 -1.33664C 6.99114 -1.49096 4.41999 -1.51233 2.66909 -1.49472C 1.78759 -1.48577 1.09744 -1.46696 0.637354 -1.4506C 0.404404 -1.4423 0.222809 -1.4344 0.103947 -1.42876C 0.0430933 -1.42586 -0.00500451 -1.42339 -0.0357223 -1.42176C -0.0517852 -1.4209 -0.0649305 -1.42018 -0.0729964 -1.41972C -0.0773794 -1.41948 -0.0811976 -1.41926 -0.0833929 -1.41913C -0.0846652 -1.41906 -0.0858821 -1.41899 -0.0865186 -1.41895C -0.0875034 -1.41889 -0.0882576 -1.41885 0 0.0785511ZM 100.41 38.6045C 120.655 58.8975 130.122 81.8982 134.628 100.025C 136.878 109.056 137.851 116.765 138.272 122.283C 138.482 125.028 138.551 127.187 138.568 128.685C 138.576 129.427 138.572 129.989 138.565 130.376C 138.562 130.566 138.558 130.705 138.555 130.802C 138.554 130.849 138.553 130.882 138.552 130.906C 138.551 130.917 138.551 130.924 138.551 130.93C 138.551 130.932 138.551 130.933 138.551 130.935C 138.551 130.935 138.551 130.935 138.551 130.935C 138.551 130.935 138.551 130.935 140.049 131C 141.548 131.065 141.548 131.065 141.548 131.064C 141.548 131.063 141.548 131.062 141.548 131.061C 141.548 131.059 141.548 131.055 141.548 131.051C 141.549 131.044 141.549 131.032 141.55 131.018C 141.551 130.991 141.552 130.948 141.554 130.894C 141.557 130.791 141.561 130.631 141.565 130.427C 141.572 130.026 141.576 129.422 141.568 128.651C 141.55 127.122 141.478 124.866 141.263 122.055C 140.836 116.463 139.827 108.504 137.539 99.301C 132.972 80.9612 123.152 57.235 102.536 36.4879L 100.41 38.6045Z"/>
<path id="path10_stroke" d="M 11.3324 9L 10.0885 10.5662L 11.3795 11.5914L 12.6323 10.5199L 11.3324 9ZM -1.24383 1.56617L 10.0885 10.5662L 12.5762 7.43383L 1.24383 -1.56617L -1.24383 1.56617ZM 12.6323 10.5199L 23.1552 1.51991L 20.5553 -1.51991L 10.0324 7.48009L 12.6323 10.5199Z"/>
<path id="path11_stroke" d="M 0 0L 262.002 0L 262.002 -3L 0 -3L 0 0Z"/>
<path id="path12_fill" d="M 37.7969 22L 37.7969 4.9375L 43.0469 4.9375C 44.5469 4.9375 45.8867 5.27734 47.0664 5.95703C 48.2539 6.62891 49.1797 7.58984 49.8438 8.83984C 50.5078 10.082 50.8398 11.4961 50.8398 13.082L 50.8398 13.8672C 50.8398 15.4531 50.5117 16.8633 49.8555 18.0977C 49.207 19.332 48.2891 20.2891 47.1016 20.9688C 45.9141 21.6484 44.5742 21.9922 43.082 22L 37.7969 22ZM 41.3125 7.78516L 41.3125 19.1758L 43.0117 19.1758C 44.3867 19.1758 45.4375 18.7266 46.1641 17.8281C 46.8906 16.9297 47.2617 15.6445 47.2773 13.9727L 47.2773 13.0703C 47.2773 11.3359 46.918 10.0234 46.1992 9.13281C 45.4805 8.23438 44.4297 7.78516 43.0469 7.78516L 41.3125 7.78516ZM 60.5312 22C 60.375 21.6953 60.2617 21.3164 60.1914 20.8633C 59.3711 21.7773 58.3047 22.2344 56.9922 22.2344C 55.75 22.2344 54.7188 21.875 53.8984 21.1562C 53.0859 20.4375 52.6797 19.5312 52.6797 18.4375C 52.6797 17.0938 53.1758 16.0625 54.168 15.3438C 55.168 14.625 56.6094 14.2617 58.4922 14.2539L 60.0508 14.2539L 60.0508 13.5273C 60.0508 12.9414 59.8984 12.4727 59.5938 12.1211C 59.2969 11.7695 58.8242 11.5938 58.1758 11.5938C 57.6055 11.5938 57.1562 11.7305 56.8281 12.0039C 56.5078 12.2773 56.3477 12.6523 56.3477 13.1289L 52.9609 13.1289C 52.9609 12.3945 53.1875 11.7148 53.6406 11.0898C 54.0938 10.4648 54.7344 9.97656 55.5625 9.625C 56.3906 9.26562 57.3203 9.08594 58.3516 9.08594C 59.9141 9.08594 61.1523 9.48047 62.0664 10.2695C 62.9883 11.0508 63.4492 12.1523 63.4492 13.5742L 63.4492 19.0703C 63.457 20.2734 63.625 21.1836 63.9531 21.8008L 63.9531 22L 60.5312 22ZM 57.7305 19.6445C 58.2305 19.6445 58.6914 19.5352 59.1133 19.3164C 59.5352 19.0898 59.8477 18.7891 60.0508 18.4141L 60.0508 16.2344L 58.7852 16.2344C 57.0898 16.2344 56.1875 16.8203 56.0781 17.9922L 56.0664 18.1914C 56.0664 18.6133 56.2148 18.9609 56.5117 19.2344C 56.8086 19.5078 57.2148 19.6445 57.7305 19.6445ZM 70.1055 6.20312L 70.1055 9.32031L 72.2734 9.32031L 72.2734 11.8047L 70.1055 11.8047L 70.1055 18.1328C 70.1055 18.6016 70.1953 18.9375 70.375 19.1406C 70.5547 19.3438 70.8984 19.4453 71.4062 19.4453C 71.7812 19.4453 72.1133 19.418 72.4023 19.3633L 72.4023 21.9297C 71.7383 22.1328 71.0547 22.2344 70.3516 22.2344C 67.9766 22.2344 66.7656 21.0352 66.7188 18.6367L 66.7188 11.8047L 64.8672 11.8047L 64.8672 9.32031L 66.7188 9.32031L 66.7188 6.20312L 70.1055 6.20312ZM 81.5078 22C 81.3516 21.6953 81.2383 21.3164 81.168 20.8633C 80.3477 21.7773 79.2812 22.2344 77.9688 22.2344C 76.7266 22.2344 75.6953 21.875 74.875 21.1562C 74.0625 20.4375 73.6562 19.5312 73.6562 18.4375C 73.6562 17.0938 74.1523 16.0625 75.1445 15.3438C 76.1445 14.625 77.5859 14.2617 79.4688 14.2539L 81.0273 14.2539L 81.0273 13.5273C 81.0273 12.9414 80.875 12.4727 80.5703 12.1211C 80.2734 11.7695 79.8008 11.5938 79.1523 11.5938C 78.582 11.5938 78.1328 11.7305 77.8047 12.0039C 77.4844 12.2773 77.3242 12.6523 77.3242 13.1289L 73.9375 13.1289C 73.9375 12.3945 74.1641 11.7148 74.6172 11.0898C 75.0703 10.4648 75.7109 9.97656 76.5391 9.625C 77.3672 9.26562 78.2969 9.08594 79.3281 9.08594C 80.8906 9.08594 82.1289 9.48047 83.043 10.2695C 83.9648 11.0508 84.4258 12.1523 84.4258 13.5742L 84.4258 19.0703C 84.4336 20.2734 84.6016 21.1836 84.9297 21.8008L 84.9297 22L 81.5078 22ZM 78.707 19.6445C 79.207 19.6445 79.668 19.5352 80.0898 19.3164C 80.5117 19.0898 80.8242 18.7891 81.0273 18.4141L 81.0273 16.2344L 79.7617 16.2344C 78.0664 16.2344 77.1641 16.8203 77.0547 17.9922L 77.043 18.1914C 77.043 18.6133 77.1914 18.9609 77.4883 19.2344C 77.7852 19.5078 78.1914 19.6445 78.707 19.6445ZM 11.8047 42.6055L 5.05469 42.6055L 5.05469 47.1758L 12.9766 47.1758L 12.9766 50L 1.53906 50L 1.53906 32.9375L 12.9531 32.9375L 12.9531 35.7852L 5.05469 35.7852L 5.05469 39.8516L 11.8047 39.8516L 11.8047 42.6055ZM 19.6445 41.1055L 21.7773 37.3203L 25.3984 37.3203L 21.7891 43.5312L 25.5508 50L 21.918 50L 19.6562 46.0156L 17.4062 50L 13.7617 50L 17.5234 43.5312L 13.9258 37.3203L 17.5586 37.3203L 19.6445 41.1055ZM 38.4414 43.7773C 38.4414 45.7305 37.9961 47.2969 37.1055 48.4766C 36.2227 49.6484 35.0273 50.2344 33.5195 50.2344C 32.2383 50.2344 31.2031 49.7891 30.4141 48.8984L 30.4141 54.875L 27.0273 54.875L 27.0273 37.3203L 30.168 37.3203L 30.2852 38.5625C 31.1055 37.5781 32.1758 37.0859 33.4961 37.0859C 35.0586 37.0859 36.2734 37.6641 37.1406 38.8203C 38.0078 39.9766 38.4414 41.5703 38.4414 43.6016L 38.4414 43.7773ZM 35.0547 43.5312C 35.0547 42.3516 34.8438 41.4414 34.4219 40.8008C 34.0078 40.1602 33.4023 39.8398 32.6055 39.8398C 31.543 39.8398 30.8125 40.2461 30.4141 41.0586L 30.4141 46.25C 30.8281 47.0859 31.5664 47.5039 32.6289 47.5039C 34.2461 47.5039 35.0547 46.1797 35.0547 43.5312ZM 44.125 50L 40.7266 50L 40.7266 32L 44.125 32L 44.125 50ZM 46.3984 43.543C 46.3984 42.2852 46.6406 41.1641 47.125 40.1797C 47.6094 39.1953 48.3047 38.4336 49.2109 37.8945C 50.125 37.3555 51.1836 37.0859 52.3867 37.0859C 54.0977 37.0859 55.4922 37.6094 56.5703 38.6562C 57.6562 39.7031 58.2617 41.125 58.3867 42.9219L 58.4102 43.7891C 58.4102 45.7344 57.8672 47.2969 56.7812 48.4766C 55.6953 49.6484 54.2383 50.2344 52.4102 50.2344C 50.582 50.2344 49.1211 49.6484 48.0273 48.4766C 46.9414 47.3047 46.3984 45.7109 46.3984 43.6953L 46.3984 43.543ZM 49.7852 43.7891C 49.7852 44.9922 50.0117 45.9141 50.4648 46.5547C 50.918 47.1875 51.5664 47.5039 52.4102 47.5039C 53.2305 47.5039 53.8711 47.1914 54.332 46.5664C 54.793 45.9336 55.0234 44.9258 55.0234 43.543C 55.0234 42.3633 54.793 41.4492 54.332 40.8008C 53.8711 40.1523 53.2227 39.8281 52.3867 39.8281C 51.5586 39.8281 50.918 40.1523 50.4648 40.8008C 50.0117 41.4414 49.7852 42.4375 49.7852 43.7891ZM 67.6211 40.4961C 67.1602 40.4336 66.7539 40.4023 66.4023 40.4023C 65.1211 40.4023 64.2812 40.8359 63.8828 41.7031L 63.8828 50L 60.4961 50L 60.4961 37.3203L 63.6953 37.3203L 63.7891 38.832C 64.4688 37.668 65.4102 37.0859 66.6133 37.0859C 66.9883 37.0859 67.3398 37.1367 67.668 37.2383L 67.6211 40.4961ZM 76.2578 50C 76.1016 49.6953 75.9883 49.3164 75.918 48.8633C 75.0977 49.7773 74.0312 50.2344 72.7188 50.2344C 71.4766 50.2344 70.4453 49.875 69.625 49.1562C 68.8125 48.4375 68.4062 47.5312 68.4062 46.4375C 68.4062 45.0938 68.9023 44.0625 69.8945 43.3438C 70.8945 42.625 72.3359 42.2617 74.2188 42.2539L 75.7773 42.2539L 75.7773 41.5273C 75.7773 40.9414 75.625 40.4727 75.3203 40.1211C 75.0234 39.7695 74.5508 39.5938 73.9023 39.5938C 73.332 39.5938 72.8828 39.7305 72.5547 40.0039C 72.2344 40.2773 72.0742 40.6523 72.0742 41.1289L 68.6875 41.1289C 68.6875 40.3945 68.9141 39.7148 69.3672 39.0898C 69.8203 38.4648 70.4609 37.9766 71.2891 37.625C 72.1172 37.2656 73.0469 37.0859 74.0781 37.0859C 75.6406 37.0859 76.8789 37.4805 77.793 38.2695C 78.7148 39.0508 79.1758 40.1523 79.1758 41.5742L 79.1758 47.0703C 79.1836 48.2734 79.3516 49.1836 79.6797 49.8008L 79.6797 50L 76.2578 50ZM 73.457 47.6445C 73.957 47.6445 74.418 47.5352 74.8398 47.3164C 75.2617 47.0898 75.5742 46.7891 75.7773 46.4141L 75.7773 44.2344L 74.5117 44.2344C 72.8164 44.2344 71.9141 44.8203 71.8047 45.9922L 71.793 46.1914C 71.793 46.6133 71.9414 46.9609 72.2383 47.2344C 72.5352 47.5078 72.9414 47.6445 73.457 47.6445ZM 85.832 34.2031L 85.832 37.3203L 88 37.3203L 88 39.8047L 85.832 39.8047L 85.832 46.1328C 85.832 46.6016 85.9219 46.9375 86.1016 47.1406C 86.2812 47.3438 86.625 47.4453 87.1328 47.4453C 87.5078 47.4453 87.8398 47.418 88.1289 47.3633L 88.1289 49.9297C 87.4648 50.1328 86.7812 50.2344 86.0781 50.2344C 83.7031 50.2344 82.4922 49.0352 82.4453 46.6367L 82.4453 39.8047L 80.5938 39.8047L 80.5938 37.3203L 82.4453 37.3203L 82.4453 34.2031L 85.832 34.2031ZM 93.4609 50L 90.0625 50L 90.0625 37.3203L 93.4609 37.3203L 93.4609 50ZM 89.8633 34.0391C 89.8633 33.5312 90.0312 33.1133 90.3672 32.7852C 90.7109 32.457 91.1758 32.293 91.7617 32.293C 92.3398 32.293 92.8008 32.457 93.1445 32.7852C 93.4883 33.1133 93.6602 33.5312 93.6602 34.0391C 93.6602 34.5547 93.4844 34.9766 93.1328 35.3047C 92.7891 35.6328 92.332 35.7969 91.7617 35.7969C 91.1914 35.7969 90.7305 35.6328 90.3789 35.3047C 90.0352 34.9766 89.8633 34.5547 89.8633 34.0391ZM 95.7344 43.543C 95.7344 42.2852 95.9766 41.1641 96.4609 40.1797C 96.9453 39.1953 97.6406 38.4336 98.5469 37.8945C 99.4609 37.3555 100.52 37.0859 101.723 37.0859C 103.434 37.0859 104.828 37.6094 105.906 38.6562C 106.992 39.7031 107.598 41.125 107.723 42.9219L 107.746 43.7891C 107.746 45.7344 107.203 47.2969 106.117 48.4766C 105.031 49.6484 103.574 50.2344 101.746 50.2344C 99.918 50.2344 98.457 49.6484 97.3633 48.4766C 96.2773 47.3047 95.7344 45.7109 95.7344 43.6953L 95.7344 43.543ZM 99.1211 43.7891C 99.1211 44.9922 99.3477 45.9141 99.8008 46.5547C 100.254 47.1875 100.902 47.5039 101.746 47.5039C 102.566 47.5039 103.207 47.1914 103.668 46.5664C 104.129 45.9336 104.359 44.9258 104.359 43.543C 104.359 42.3633 104.129 41.4492 103.668 40.8008C 103.207 40.1523 102.559 39.8281 101.723 39.8281C 100.895 39.8281 100.254 40.1523 99.8008 40.8008C 99.3477 41.4414 99.1211 42.4375 99.1211 43.7891ZM 112.949 37.3203L 113.055 38.7852C 113.961 37.6523 115.176 37.0859 116.699 37.0859C 118.043 37.0859 119.043 37.4805 119.699 38.2695C 120.355 39.0586 120.691 40.2383 120.707 41.8086L 120.707 50L 117.32 50L 117.32 41.8906C 117.32 41.1719 117.164 40.6523 116.852 40.332C 116.539 40.0039 116.02 39.8398 115.293 39.8398C 114.34 39.8398 113.625 40.2461 113.148 41.0586L 113.148 50L 109.762 50L 109.762 37.3203L 112.949 37.3203Z"/>
<path id="path13_fill" d="M 35.3906 15.0273L 28.6406 15.0273L 28.6406 22L 25.125 22L 25.125 4.9375L 36.2344 4.9375L 36.2344 7.78516L 28.6406 7.78516L 28.6406 12.1914L 35.3906 12.1914L 35.3906 15.0273ZM 43.6289 22.2344C 41.7695 22.2344 40.2539 21.6641 39.082 20.5234C 37.918 19.3828 37.3359 17.8633 37.3359 15.9648L 37.3359 15.6367C 37.3359 14.3633 37.582 13.2266 38.0742 12.2266C 38.5664 11.2188 39.2617 10.4453 40.1602 9.90625C 41.0664 9.35938 42.0977 9.08594 43.2539 9.08594C 44.9883 9.08594 46.3516 9.63281 47.3438 10.7266C 48.3438 11.8203 48.8438 13.3711 48.8438 15.3789L 48.8438 16.7617L 40.7695 16.7617C 40.8789 17.5898 41.207 18.2539 41.7539 18.7539C 42.3086 19.2539 43.0078 19.5039 43.8516 19.5039C 45.1562 19.5039 46.1758 19.0312 46.9102 18.0859L 48.5742 19.9492C 48.0664 20.668 47.3789 21.2305 46.5117 21.6367C 45.6445 22.0352 44.6836 22.2344 43.6289 22.2344ZM 43.2422 11.8281C 42.5703 11.8281 42.0234 12.0547 41.6016 12.5078C 41.1875 12.9609 40.9219 13.6094 40.8047 14.4531L 45.5156 14.4531L 45.5156 14.1836C 45.5 13.4336 45.2969 12.8555 44.9062 12.4492C 44.5156 12.0352 43.9609 11.8281 43.2422 11.8281ZM 58.125 22C 57.9688 21.6953 57.8555 21.3164 57.7852 20.8633C 56.9648 21.7773 55.8984 22.2344 54.5859 22.2344C 53.3438 22.2344 52.3125 21.875 51.4922 21.1562C 50.6797 20.4375 50.2734 19.5312 50.2734 18.4375C 50.2734 17.0938 50.7695 16.0625 51.7617 15.3438C 52.7617 14.625 54.2031 14.2617 56.0859 14.2539L 57.6445 14.2539L 57.6445 13.5273C 57.6445 12.9414 57.4922 12.4727 57.1875 12.1211C 56.8906 11.7695 56.418 11.5938 55.7695 11.5938C 55.1992 11.5938 54.75 11.7305 54.4219 12.0039C 54.1016 12.2773 53.9414 12.6523 53.9414 13.1289L 50.5547 13.1289C 50.5547 12.3945 50.7812 11.7148 51.2344 11.0898C 51.6875 10.4648 52.3281 9.97656 53.1562 9.625C 53.9844 9.26562 54.9141 9.08594 55.9453 9.08594C 57.5078 9.08594 58.7461 9.48047 59.6602 10.2695C 60.582 11.0508 61.043 12.1523 61.043 13.5742L 61.043 19.0703C 61.0508 20.2734 61.2188 21.1836 61.5469 21.8008L 61.5469 22L 58.125 22ZM 55.3242 19.6445C 55.8242 19.6445 56.2852 19.5352 56.707 19.3164C 57.1289 19.0898 57.4414 18.7891 57.6445 18.4141L 57.6445 16.2344L 56.3789 16.2344C 54.6836 16.2344 53.7812 16.8203 53.6719 17.9922L 53.6602 18.1914C 53.6602 18.6133 53.8086 18.9609 54.1055 19.2344C 54.4023 19.5078 54.8086 19.6445 55.3242 19.6445ZM 67.6992 6.20312L 67.6992 9.32031L 69.8672 9.32031L 69.8672 11.8047L 67.6992 11.8047L 67.6992 18.1328C 67.6992 18.6016 67.7891 18.9375 67.9688 19.1406C 68.1484 19.3438 68.4922 19.4453 69 19.4453C 69.375 19.4453 69.707 19.418 69.9961 19.3633L 69.9961 21.9297C 69.332 22.1328 68.6484 22.2344 67.9453 22.2344C 65.5703 22.2344 64.3594 21.0352 64.3125 18.6367L 64.3125 11.8047L 62.4609 11.8047L 62.4609 9.32031L 64.3125 9.32031L 64.3125 6.20312L 67.6992 6.20312ZM 79.3477 20.7109C 78.5117 21.7266 77.3555 22.2344 75.8789 22.2344C 74.5195 22.2344 73.4805 21.8438 72.7617 21.0625C 72.0508 20.2812 71.6875 19.1367 71.6719 17.6289L 71.6719 9.32031L 75.0586 9.32031L 75.0586 17.5117C 75.0586 18.832 75.6602 19.4922 76.8633 19.4922C 78.0117 19.4922 78.8008 19.0938 79.2305 18.2969L 79.2305 9.32031L 82.6289 9.32031L 82.6289 22L 79.4414 22L 79.3477 20.7109ZM 92.3086 12.4961C 91.8477 12.4336 91.4414 12.4023 91.0898 12.4023C 89.8086 12.4023 88.9688 12.8359 88.5703 13.7031L 88.5703 22L 85.1836 22L 85.1836 9.32031L 88.3828 9.32031L 88.4766 10.832C 89.1562 9.66797 90.0977 9.08594 91.3008 9.08594C 91.6758 9.08594 92.0273 9.13672 92.3555 9.23828L 92.3086 12.4961ZM 99.5508 22.2344C 97.6914 22.2344 96.1758 21.6641 95.0039 20.5234C 93.8398 19.3828 93.2578 17.8633 93.2578 15.9648L 93.2578 15.6367C 93.2578 14.3633 93.5039 13.2266 93.9961 12.2266C 94.4883 11.2188 95.1836 10.4453 96.082 9.90625C 96.9883 9.35938 98.0195 9.08594 99.1758 9.08594C 100.91 9.08594 102.273 9.63281 103.266 10.7266C 104.266 11.8203 104.766 13.3711 104.766 15.3789L 104.766 16.7617L 96.6914 16.7617C 96.8008 17.5898 97.1289 18.2539 97.6758 18.7539C 98.2305 19.2539 98.9297 19.5039 99.7734 19.5039C 101.078 19.5039 102.098 19.0312 102.832 18.0859L 104.496 19.9492C 103.988 20.668 103.301 21.2305 102.434 21.6367C 101.566 22.0352 100.605 22.2344 99.5508 22.2344ZM 99.1641 11.8281C 98.4922 11.8281 97.9453 12.0547 97.5234 12.5078C 97.1094 12.9609 96.8438 13.6094 96.7266 14.4531L 101.438 14.4531L 101.438 14.1836C 101.422 13.4336 101.219 12.8555 100.828 12.4492C 100.438 12.0352 99.8828 11.8281 99.1641 11.8281ZM 11.9062 42.6055L 5.15625 42.6055L 5.15625 47.1758L 13.0781 47.1758L 13.0781 50L 1.64062 50L 1.64062 32.9375L 13.0547 32.9375L 13.0547 35.7852L 5.15625 35.7852L 5.15625 39.8516L 11.9062 39.8516L 11.9062 42.6055ZM 18.0352 37.3203L 18.1406 38.7852C 19.0469 37.6523 20.2617 37.0859 21.7852 37.0859C 23.1289 37.0859 24.1289 37.4805 24.7852 38.2695C 25.4414 39.0586 25.7773 40.2383 25.793 41.8086L 25.793 50L 22.4062 50L 22.4062 41.8906C 22.4062 41.1719 22.25 40.6523 21.9375 40.332C 21.625 40.0039 21.1055 39.8398 20.3789 39.8398C 19.4258 39.8398 18.7109 40.2461 18.2344 41.0586L 18.2344 50L 14.8477 50L 14.8477 37.3203L 18.0352 37.3203ZM 27.8789 43.5664C 27.8789 41.6211 28.3398 40.0547 29.2617 38.8672C 30.1914 37.6797 31.4414 37.0859 33.0117 37.0859C 34.4023 37.0859 35.4844 37.5625 36.2578 38.5156L 36.3984 37.3203L 39.4688 37.3203L 39.4688 49.5781C 39.4688 50.6875 39.2148 51.6523 38.707 52.4727C 38.207 53.293 37.5 53.918 36.5859 54.3477C 35.6719 54.7773 34.6016 54.9922 33.375 54.9922C 32.4453 54.9922 31.5391 54.8047 30.6562 54.4297C 29.7734 54.0625 29.1055 53.5859 28.6523 53L 30.1523 50.9375C 30.9961 51.8828 32.0195 52.3555 33.2227 52.3555C 34.1211 52.3555 34.8203 52.1133 35.3203 51.6289C 35.8203 51.1523 36.0703 50.4727 36.0703 49.5898L 36.0703 48.9102C 35.2891 49.793 34.2617 50.2344 32.9883 50.2344C 31.4648 50.2344 30.2305 49.6406 29.2852 48.4531C 28.3477 47.2578 27.8789 45.6758 27.8789 43.707L 27.8789 43.5664ZM 31.2656 43.8125C 31.2656 44.9609 31.4961 45.8633 31.957 46.5195C 32.418 47.168 33.0508 47.4922 33.8555 47.4922C 34.8867 47.4922 35.625 47.1055 36.0703 46.332L 36.0703 41C 35.6172 40.2266 34.8867 39.8398 33.8789 39.8398C 33.0664 39.8398 32.4258 40.1719 31.957 40.8359C 31.4961 41.5 31.2656 42.4922 31.2656 43.8125ZM 45.6562 50L 42.2578 50L 42.2578 37.3203L 45.6562 37.3203L 45.6562 50ZM 42.0586 34.0391C 42.0586 33.5312 42.2266 33.1133 42.5625 32.7852C 42.9062 32.457 43.3711 32.293 43.957 32.293C 44.5352 32.293 44.9961 32.457 45.3398 32.7852C 45.6836 33.1133 45.8555 33.5312 45.8555 34.0391C 45.8555 34.5547 45.6797 34.9766 45.3281 35.3047C 44.9844 35.6328 44.5273 35.7969 43.957 35.7969C 43.3867 35.7969 42.9258 35.6328 42.5742 35.3047C 42.2305 34.9766 42.0586 34.5547 42.0586 34.0391ZM 51.5742 37.3203L 51.6797 38.7852C 52.5859 37.6523 53.8008 37.0859 55.3242 37.0859C 56.668 37.0859 57.668 37.4805 58.3242 38.2695C 58.9805 39.0586 59.3164 40.2383 59.332 41.8086L 59.332 50L 55.9453 50L 55.9453 41.8906C 55.9453 41.1719 55.7891 40.6523 55.4766 40.332C 55.1641 40.0039 54.6445 39.8398 53.918 39.8398C 52.9648 39.8398 52.25 40.2461 51.7734 41.0586L 51.7734 50L 48.3867 50L 48.3867 37.3203L 51.5742 37.3203ZM 67.7461 50.2344C 65.8867 50.2344 64.3711 49.6641 63.1992 48.5234C 62.0352 47.3828 61.4531 45.8633 61.4531 43.9648L 61.4531 43.6367C 61.4531 42.3633 61.6992 41.2266 62.1914 40.2266C 62.6836 39.2188 63.3789 38.4453 64.2773 37.9062C 65.1836 37.3594 66.2148 37.0859 67.3711 37.0859C 69.1055 37.0859 70.4688 37.6328 71.4609 38.7266C 72.4609 39.8203 72.9609 41.3711 72.9609 43.3789L 72.9609 44.7617L 64.8867 44.7617C 64.9961 45.5898 65.3242 46.2539 65.8711 46.7539C 66.4258 47.2539 67.125 47.5039 67.9688 47.5039C 69.2734 47.5039 70.293 47.0312 71.0273 46.0859L 72.6914 47.9492C 72.1836 48.668 71.4961 49.2305 70.6289 49.6367C 69.7617 50.0352 68.8008 50.2344 67.7461 50.2344ZM 67.3594 39.8281C 66.6875 39.8281 66.1406 40.0547 65.7188 40.5078C 65.3047 40.9609 65.0391 41.6094 64.9219 42.4531L 69.6328 42.4531L 69.6328 42.1836C 69.6172 41.4336 69.4141 40.8555 69.0234 40.4492C 68.6328 40.0352 68.0781 39.8281 67.3594 39.8281ZM 80.7305 50.2344C 78.8711 50.2344 77.3555 49.6641 76.1836 48.5234C 75.0195 47.3828 74.4375 45.8633 74.4375 43.9648L 74.4375 43.6367C 74.4375 42.3633 74.6836 41.2266 75.1758 40.2266C 75.668 39.2188 76.3633 38.4453 77.2617 37.9062C 78.168 37.3594 79.1992 37.0859 80.3555 37.0859C 82.0898 37.0859 83.4531 37.6328 84.4453 38.7266C 85.4453 39.8203 85.9453 41.3711 85.9453 43.3789L 85.9453 44.7617L 77.8711 44.7617C 77.9805 45.5898 78.3086 46.2539 78.8555 46.7539C 79.4102 47.2539 80.1094 47.5039 80.9531 47.5039C 82.2578 47.5039 83.2773 47.0312 84.0117 46.0859L 85.6758 47.9492C 85.168 48.668 84.4805 49.2305 83.6133 49.6367C 82.7461 50.0352 81.7852 50.2344 80.7305 50.2344ZM 80.3438 39.8281C 79.6719 39.8281 79.125 40.0547 78.7031 40.5078C 78.2891 40.9609 78.0234 41.6094 77.9062 42.4531L 82.6172 42.4531L 82.6172 42.1836C 82.6016 41.4336 82.3984 40.8555 82.0078 40.4492C 81.6172 40.0352 81.0625 39.8281 80.3438 39.8281ZM 95.0039 40.4961C 94.543 40.4336 94.1367 40.4023 93.7852 40.4023C 92.5039 40.4023 91.6641 40.8359 91.2656 41.7031L 91.2656 50L 87.8789 50L 87.8789 37.3203L 91.0781 37.3203L 91.1719 38.832C 91.8516 37.668 92.793 37.0859 93.9961 37.0859C 94.3711 37.0859 94.7227 37.1367 95.0508 37.2383L 95.0039 40.4961ZM 100.219 50L 96.8203 50L 96.8203 37.3203L 100.219 37.3203L 100.219 50ZM 96.6211 34.0391C 96.6211 33.5312 96.7891 33.1133 97.125 32.7852C 97.4688 32.457 97.9336 32.293 98.5195 32.293C 99.0977 32.293 99.5586 32.457 99.9023 32.7852C 100.246 33.1133 100.418 33.5312 100.418 34.0391C 100.418 34.5547 100.242 34.9766 99.8906 35.3047C 99.5469 35.6328 99.0898 35.7969 98.5195 35.7969C 97.9492 35.7969 97.4883 35.6328 97.1367 35.3047C 96.793 34.9766 96.6211 34.5547 96.6211 34.0391ZM 106.137 37.3203L 106.242 38.7852C 107.148 37.6523 108.363 37.0859 109.887 37.0859C 111.23 37.0859 112.23 37.4805 112.887 38.2695C 113.543 39.0586 113.879 40.2383 113.895 41.8086L 113.895 50L 110.508 50L 110.508 41.8906C 110.508 41.1719 110.352 40.6523 110.039 40.332C 109.727 40.0039 109.207 39.8398 108.48 39.8398C 107.527 39.8398 106.812 40.2461 106.336 41.0586L 106.336 50L 102.949 50L 102.949 37.3203L 106.137 37.3203ZM 115.98 43.5664C 115.98 41.6211 116.441 40.0547 117.363 38.8672C 118.293 37.6797 119.543 37.0859 121.113 37.0859C 122.504 37.0859 123.586 37.5625 124.359 38.5156L 124.5 37.3203L 127.57 37.3203L 127.57 49.5781C 127.57 50.6875 127.316 51.6523 126.809 52.4727C 126.309 53.293 125.602 53.918 124.688 54.3477C 123.773 54.7773 122.703 54.9922 121.477 54.9922C 120.547 54.9922 119.641 54.8047 118.758 54.4297C 117.875 54.0625 117.207 53.5859 116.754 53L 118.254 50.9375C 119.098 51.8828 120.121 52.3555 121.324 52.3555C 122.223 52.3555 122.922 52.1133 123.422 51.6289C 123.922 51.1523 124.172 50.4727 124.172 49.5898L 124.172 48.9102C 123.391 49.793 122.363 50.2344 121.09 50.2344C 119.566 50.2344 118.332 49.6406 117.387 48.4531C 116.449 47.2578 115.98 45.6758 115.98 43.707L 115.98 43.5664ZM 119.367 43.8125C 119.367 44.9609 119.598 45.8633 120.059 46.5195C 120.52 47.168 121.152 47.4922 121.957 47.4922C 122.988 47.4922 123.727 47.1055 124.172 46.332L 124.172 41C 123.719 40.2266 122.988 39.8398 121.98 39.8398C 121.168 39.8398 120.527 40.1719 120.059 40.8359C 119.598 41.5 119.367 42.4922 119.367 43.8125Z"/>
<path id="path14_fill" d="M 21.8906 15.0273L 15.1406 15.0273L 15.1406 22L 11.625 22L 11.625 4.9375L 22.7344 4.9375L 22.7344 7.78516L 15.1406 7.78516L 15.1406 12.1914L 21.8906 12.1914L 21.8906 15.0273ZM 30.1289 22.2344C 28.2695 22.2344 26.7539 21.6641 25.582 20.5234C 24.418 19.3828 23.8359 17.8633 23.8359 15.9648L 23.8359 15.6367C 23.8359 14.3633 24.082 13.2266 24.5742 12.2266C 25.0664 11.2188 25.7617 10.4453 26.6602 9.90625C 27.5664 9.35938 28.5977 9.08594 29.7539 9.08594C 31.4883 9.08594 32.8516 9.63281 33.8438 10.7266C 34.8438 11.8203 35.3438 13.3711 35.3438 15.3789L 35.3438 16.7617L 27.2695 16.7617C 27.3789 17.5898 27.707 18.2539 28.2539 18.7539C 28.8086 19.2539 29.5078 19.5039 30.3516 19.5039C 31.6562 19.5039 32.6758 19.0312 33.4102 18.0859L 35.0742 19.9492C 34.5664 20.668 33.8789 21.2305 33.0117 21.6367C 32.1445 22.0352 31.1836 22.2344 30.1289 22.2344ZM 29.7422 11.8281C 29.0703 11.8281 28.5234 12.0547 28.1016 12.5078C 27.6875 12.9609 27.4219 13.6094 27.3047 14.4531L 32.0156 14.4531L 32.0156 14.1836C 32 13.4336 31.7969 12.8555 31.4062 12.4492C 31.0156 12.0352 30.4609 11.8281 29.7422 11.8281ZM 44.625 22C 44.4688 21.6953 44.3555 21.3164 44.2852 20.8633C 43.4648 21.7773 42.3984 22.2344 41.0859 22.2344C 39.8438 22.2344 38.8125 21.875 37.9922 21.1562C 37.1797 20.4375 36.7734 19.5312 36.7734 18.4375C 36.7734 17.0938 37.2695 16.0625 38.2617 15.3438C 39.2617 14.625 40.7031 14.2617 42.5859 14.2539L 44.1445 14.2539L 44.1445 13.5273C 44.1445 12.9414 43.9922 12.4727 43.6875 12.1211C 43.3906 11.7695 42.918 11.5938 42.2695 11.5938C 41.6992 11.5938 41.25 11.7305 40.9219 12.0039C 40.6016 12.2773 40.4414 12.6523 40.4414 13.1289L 37.0547 13.1289C 37.0547 12.3945 37.2812 11.7148 37.7344 11.0898C 38.1875 10.4648 38.8281 9.97656 39.6562 9.625C 40.4844 9.26562 41.4141 9.08594 42.4453 9.08594C 44.0078 9.08594 45.2461 9.48047 46.1602 10.2695C 47.082 11.0508 47.543 12.1523 47.543 13.5742L 47.543 19.0703C 47.5508 20.2734 47.7188 21.1836 48.0469 21.8008L 48.0469 22L 44.625 22ZM 41.8242 19.6445C 42.3242 19.6445 42.7852 19.5352 43.207 19.3164C 43.6289 19.0898 43.9414 18.7891 44.1445 18.4141L 44.1445 16.2344L 42.8789 16.2344C 41.1836 16.2344 40.2812 16.8203 40.1719 17.9922L 40.1602 18.1914C 40.1602 18.6133 40.3086 18.9609 40.6055 19.2344C 40.9023 19.5078 41.3086 19.6445 41.8242 19.6445ZM 54.1992 6.20312L 54.1992 9.32031L 56.3672 9.32031L 56.3672 11.8047L 54.1992 11.8047L 54.1992 18.1328C 54.1992 18.6016 54.2891 18.9375 54.4688 19.1406C 54.6484 19.3438 54.9922 19.4453 55.5 19.4453C 55.875 19.4453 56.207 19.418 56.4961 19.3633L 56.4961 21.9297C 55.832 22.1328 55.1484 22.2344 54.4453 22.2344C 52.0703 22.2344 50.8594 21.0352 50.8125 18.6367L 50.8125 11.8047L 48.9609 11.8047L 48.9609 9.32031L 50.8125 9.32031L 50.8125 6.20312L 54.1992 6.20312ZM 65.8477 20.7109C 65.0117 21.7266 63.8555 22.2344 62.3789 22.2344C 61.0195 22.2344 59.9805 21.8438 59.2617 21.0625C 58.5508 20.2812 58.1875 19.1367 58.1719 17.6289L 58.1719 9.32031L 61.5586 9.32031L 61.5586 17.5117C 61.5586 18.832 62.1602 19.4922 63.3633 19.4922C 64.5117 19.4922 65.3008 19.0938 65.7305 18.2969L 65.7305 9.32031L 69.1289 9.32031L 69.1289 22L 65.9414 22L 65.8477 20.7109ZM 78.8086 12.4961C 78.3477 12.4336 77.9414 12.4023 77.5898 12.4023C 76.3086 12.4023 75.4688 12.8359 75.0703 13.7031L 75.0703 22L 71.6836 22L 71.6836 9.32031L 74.8828 9.32031L 74.9766 10.832C 75.6562 9.66797 76.5977 9.08594 77.8008 9.08594C 78.1758 9.08594 78.5273 9.13672 78.8555 9.23828L 78.8086 12.4961ZM 86.0508 22.2344C 84.1914 22.2344 82.6758 21.6641 81.5039 20.5234C 80.3398 19.3828 79.7578 17.8633 79.7578 15.9648L 79.7578 15.6367C 79.7578 14.3633 80.0039 13.2266 80.4961 12.2266C 80.9883 11.2188 81.6836 10.4453 82.582 9.90625C 83.4883 9.35938 84.5195 9.08594 85.6758 9.08594C 87.4102 9.08594 88.7734 9.63281 89.7656 10.7266C 90.7656 11.8203 91.2656 13.3711 91.2656 15.3789L 91.2656 16.7617L 83.1914 16.7617C 83.3008 17.5898 83.6289 18.2539 84.1758 18.7539C 84.7305 19.2539 85.4297 19.5039 86.2734 19.5039C 87.5781 19.5039 88.5977 19.0312 89.332 18.0859L 90.9961 19.9492C 90.4883 20.668 89.8008 21.2305 88.9336 21.6367C 88.0664 22.0352 87.1055 22.2344 86.0508 22.2344ZM 85.6641 11.8281C 84.9922 11.8281 84.4453 12.0547 84.0234 12.5078C 83.6094 12.9609 83.3438 13.6094 83.2266 14.4531L 87.9375 14.4531L 87.9375 14.1836C 87.9219 13.4336 87.7188 12.8555 87.3281 12.4492C 86.9375 12.0352 86.3828 11.8281 85.6641 11.8281ZM 10.8047 45.5234C 10.8047 44.8594 10.5703 44.3516 10.1016 44C 9.63281 43.6406 8.78906 43.2656 7.57031 42.875C 6.35156 42.4766 5.38672 42.0859 4.67578 41.7031C 2.73828 40.6562 1.76953 39.2461 1.76953 37.4727C 1.76953 36.5508 2.02734 35.7305 2.54297 35.0117C 3.06641 34.2852 3.8125 33.7188 4.78125 33.3125C 5.75781 32.9062 6.85156 32.7031 8.0625 32.7031C 9.28125 32.7031 10.3672 32.9258 11.3203 33.3711C 12.2734 33.8086 13.0117 34.4297 13.5352 35.2344C 14.0664 36.0391 14.332 36.9531 14.332 37.9766L 10.8164 37.9766C 10.8164 37.1953 10.5703 36.5898 10.0781 36.1602C 9.58594 35.7227 8.89453 35.5039 8.00391 35.5039C 7.14453 35.5039 6.47656 35.6875 6 36.0547C 5.52344 36.4141 5.28516 36.8906 5.28516 37.4844C 5.28516 38.0391 5.5625 38.5039 6.11719 38.8789C 6.67969 39.2539 7.50391 39.6055 8.58984 39.9336C 10.5898 40.5352 12.0469 41.2812 12.9609 42.1719C 13.875 43.0625 14.332 44.1719 14.332 45.5C 14.332 46.9766 13.7734 48.1367 12.6562 48.9805C 11.5391 49.8164 10.0352 50.2344 8.14453 50.2344C 6.83203 50.2344 5.63672 49.9961 4.55859 49.5195C 3.48047 49.0352 2.65625 48.375 2.08594 47.5391C 1.52344 46.7031 1.24219 45.7344 1.24219 44.6328L 4.76953 44.6328C 4.76953 46.5156 5.89453 47.457 8.14453 47.457C 8.98047 47.457 9.63281 47.2891 10.1016 46.9531C 10.5703 46.6094 10.8047 46.1328 10.8047 45.5234ZM 22.3359 50.2344C 20.4766 50.2344 18.9609 49.6641 17.7891 48.5234C 16.625 47.3828 16.043 45.8633 16.043 43.9648L 16.043 43.6367C 16.043 42.3633 16.2891 41.2266 16.7812 40.2266C 17.2734 39.2188 17.9688 38.4453 18.8672 37.9062C 19.7734 37.3594 20.8047 37.0859 21.9609 37.0859C 23.6953 37.0859 25.0586 37.6328 26.0508 38.7266C 27.0508 39.8203 27.5508 41.3711 27.5508 43.3789L 27.5508 44.7617L 19.4766 44.7617C 19.5859 45.5898 19.9141 46.2539 20.4609 46.7539C 21.0156 47.2539 21.7148 47.5039 22.5586 47.5039C 23.8633 47.5039 24.8828 47.0312 25.6172 46.0859L 27.2812 47.9492C 26.7734 48.668 26.0859 49.2305 25.2188 49.6367C 24.3516 50.0352 23.3906 50.2344 22.3359 50.2344ZM 21.9492 39.8281C 21.2773 39.8281 20.7305 40.0547 20.3086 40.5078C 19.8945 40.9609 19.6289 41.6094 19.5117 42.4531L 24.2227 42.4531L 24.2227 42.1836C 24.207 41.4336 24.0039 40.8555 23.6133 40.4492C 23.2227 40.0352 22.668 39.8281 21.9492 39.8281ZM 33.0586 50L 29.6602 50L 29.6602 32L 33.0586 32L 33.0586 50ZM 41.6953 50.2344C 39.8359 50.2344 38.3203 49.6641 37.1484 48.5234C 35.9844 47.3828 35.4023 45.8633 35.4023 43.9648L 35.4023 43.6367C 35.4023 42.3633 35.6484 41.2266 36.1406 40.2266C 36.6328 39.2188 37.3281 38.4453 38.2266 37.9062C 39.1328 37.3594 40.1641 37.0859 41.3203 37.0859C 43.0547 37.0859 44.418 37.6328 45.4102 38.7266C 46.4102 39.8203 46.9102 41.3711 46.9102 43.3789L 46.9102 44.7617L 38.8359 44.7617C 38.9453 45.5898 39.2734 46.2539 39.8203 46.7539C 40.375 47.2539 41.0742 47.5039 41.918 47.5039C 43.2227 47.5039 44.2422 47.0312 44.9766 46.0859L 46.6406 47.9492C 46.1328 48.668 45.4453 49.2305 44.5781 49.6367C 43.7109 50.0352 42.75 50.2344 41.6953 50.2344ZM 41.3086 39.8281C 40.6367 39.8281 40.0898 40.0547 39.668 40.5078C 39.2539 40.9609 38.9883 41.6094 38.8711 42.4531L 43.582 42.4531L 43.582 42.1836C 43.5664 41.4336 43.3633 40.8555 42.9727 40.4492C 42.582 40.0352 42.0273 39.8281 41.3086 39.8281ZM 54.1172 47.5039C 54.7422 47.5039 55.25 47.332 55.6406 46.9883C 56.0312 46.6445 56.2344 46.1875 56.25 45.6172L 59.4258 45.6172C 59.418 46.4766 59.1836 47.2656 58.7227 47.9844C 58.2617 48.6953 57.6289 49.25 56.8242 49.6484C 56.0273 50.0391 55.1445 50.2344 54.1758 50.2344C 52.3633 50.2344 50.9336 49.6602 49.8867 48.5117C 48.8398 47.3555 48.3164 45.7617 48.3164 43.7305L 48.3164 43.5078C 48.3164 41.5547 48.8359 39.9961 49.875 38.832C 50.9141 37.668 52.3398 37.0859 54.1523 37.0859C 55.7383 37.0859 57.0078 37.5391 57.9609 38.4453C 58.9219 39.3438 59.4102 40.543 59.4258 42.043L 56.25 42.043C 56.2344 41.3867 56.0312 40.8555 55.6406 40.4492C 55.25 40.0352 54.7344 39.8281 54.0938 39.8281C 53.3047 39.8281 52.707 40.1172 52.3008 40.6953C 51.9023 41.2656 51.7031 42.1953 51.7031 43.4844L 51.7031 43.8359C 51.7031 45.1406 51.9023 46.0781 52.3008 46.6484C 52.6992 47.2188 53.3047 47.5039 54.1172 47.5039ZM 65.4141 34.2031L 65.4141 37.3203L 67.582 37.3203L 67.582 39.8047L 65.4141 39.8047L 65.4141 46.1328C 65.4141 46.6016 65.5039 46.9375 65.6836 47.1406C 65.8633 47.3438 66.207 47.4453 66.7148 47.4453C 67.0898 47.4453 67.4219 47.418 67.7109 47.3633L 67.7109 49.9297C 67.0469 50.1328 66.3633 50.2344 65.6602 50.2344C 63.2852 50.2344 62.0742 49.0352 62.0273 46.6367L 62.0273 39.8047L 60.1758 39.8047L 60.1758 37.3203L 62.0273 37.3203L 62.0273 34.2031L 65.4141 34.2031ZM 73.043 50L 69.6445 50L 69.6445 37.3203L 73.043 37.3203L 73.043 50ZM 69.4453 34.0391C 69.4453 33.5312 69.6133 33.1133 69.9492 32.7852C 70.293 32.457 70.7578 32.293 71.3438 32.293C 71.9219 32.293 72.3828 32.457 72.7266 32.7852C 73.0703 33.1133 73.2422 33.5312 73.2422 34.0391C 73.2422 34.5547 73.0664 34.9766 72.7148 35.3047C 72.3711 35.6328 71.9141 35.7969 71.3438 35.7969C 70.7734 35.7969 70.3125 35.6328 69.9609 35.3047C 69.6172 34.9766 69.4453 34.5547 69.4453 34.0391ZM 75.3164 43.543C 75.3164 42.2852 75.5586 41.1641 76.043 40.1797C 76.5273 39.1953 77.2227 38.4336 78.1289 37.8945C 79.043 37.3555 80.1016 37.0859 81.3047 37.0859C 83.0156 37.0859 84.4102 37.6094 85.4883 38.6562C 86.5742 39.7031 87.1797 41.125 87.3047 42.9219L 87.3281 43.7891C 87.3281 45.7344 86.7852 47.2969 85.6992 48.4766C 84.6133 49.6484 83.1562 50.2344 81.3281 50.2344C 79.5 50.2344 78.0391 49.6484 76.9453 48.4766C 75.8594 47.3047 75.3164 45.7109 75.3164 43.6953L 75.3164 43.543ZM 78.7031 43.7891C 78.7031 44.9922 78.9297 45.9141 79.3828 46.5547C 79.8359 47.1875 80.4844 47.5039 81.3281 47.5039C 82.1484 47.5039 82.7891 47.1914 83.25 46.5664C 83.7109 45.9336 83.9414 44.9258 83.9414 43.543C 83.9414 42.3633 83.7109 41.4492 83.25 40.8008C 82.7891 40.1523 82.1406 39.8281 81.3047 39.8281C 80.4766 39.8281 79.8359 40.1523 79.3828 40.8008C 78.9297 41.4414 78.7031 42.4375 78.7031 43.7891ZM 92.5312 37.3203L 92.6367 38.7852C 93.543 37.6523 94.7578 37.0859 96.2812 37.0859C 97.625 37.0859 98.625 37.4805 99.2812 38.2695C 99.9375 39.0586 100.273 40.2383 100.289 41.8086L 100.289 50L 96.9023 50L 96.9023 41.8906C 96.9023 41.1719 96.7461 40.6523 96.4336 40.332C 96.1211 40.0039 95.6016 39.8398 94.875 39.8398C 93.9219 39.8398 93.207 40.2461 92.7305 41.0586L 92.7305 50L 89.3438 50L 89.3438 37.3203L 92.5312 37.3203Z"/>
<path id="path15_fill" d="M 64.8789 4.9375L 69.2617 17.3125L 73.6211 4.9375L 78.2383 4.9375L 78.2383 22L 74.7109 22L 74.7109 17.3359L 75.0625 9.28516L 70.457 22L 68.043 22L 63.4492 9.29688L 63.8008 17.3359L 63.8008 22L 60.2852 22L 60.2852 4.9375L 64.8789 4.9375ZM 80.5586 15.543C 80.5586 14.2852 80.8008 13.1641 81.2852 12.1797C 81.7695 11.1953 82.4648 10.4336 83.3711 9.89453C 84.2852 9.35547 85.3438 9.08594 86.5469 9.08594C 88.2578 9.08594 89.6523 9.60938 90.7305 10.6562C 91.8164 11.7031 92.4219 13.125 92.5469 14.9219L 92.5703 15.7891C 92.5703 17.7344 92.0273 19.2969 90.9414 20.4766C 89.8555 21.6484 88.3984 22.2344 86.5703 22.2344C 84.7422 22.2344 83.2812 21.6484 82.1875 20.4766C 81.1016 19.3047 80.5586 17.7109 80.5586 15.6953L 80.5586 15.543ZM 83.9453 15.7891C 83.9453 16.9922 84.1719 17.9141 84.625 18.5547C 85.0781 19.1875 85.7266 19.5039 86.5703 19.5039C 87.3906 19.5039 88.0312 19.1914 88.4922 18.5664C 88.9531 17.9336 89.1836 16.9258 89.1836 15.543C 89.1836 14.3633 88.9531 13.4492 88.4922 12.8008C 88.0312 12.1523 87.3828 11.8281 86.5469 11.8281C 85.7188 11.8281 85.0781 12.1523 84.625 12.8008C 84.1719 13.4414 83.9453 14.4375 83.9453 15.7891ZM 94.1289 15.5664C 94.1289 13.5898 94.5703 12.0156 95.4531 10.8438C 96.3438 9.67188 97.5586 9.08594 99.0977 9.08594C 100.332 9.08594 101.352 9.54688 102.156 10.4688L 102.156 4L 105.555 4L 105.555 22L 102.496 22L 102.332 20.6523C 101.488 21.707 100.402 22.2344 99.0742 22.2344C 97.582 22.2344 96.3828 21.6484 95.4766 20.4766C 94.5781 19.2969 94.1289 17.6602 94.1289 15.5664ZM 97.5156 15.8125C 97.5156 17 97.7227 17.9102 98.1367 18.543C 98.5508 19.1758 99.1523 19.4922 99.9414 19.4922C 100.988 19.4922 101.727 19.0508 102.156 18.168L 102.156 13.1641C 101.734 12.2812 101.004 11.8398 99.9648 11.8398C 98.332 11.8398 97.5156 13.1641 97.5156 15.8125ZM 114.016 22.2344C 112.156 22.2344 110.641 21.6641 109.469 20.5234C 108.305 19.3828 107.723 17.8633 107.723 15.9648L 107.723 15.6367C 107.723 14.3633 107.969 13.2266 108.461 12.2266C 108.953 11.2188 109.648 10.4453 110.547 9.90625C 111.453 9.35938 112.484 9.08594 113.641 9.08594C 115.375 9.08594 116.738 9.63281 117.73 10.7266C 118.73 11.8203 119.23 13.3711 119.23 15.3789L 119.23 16.7617L 111.156 16.7617C 111.266 17.5898 111.594 18.2539 112.141 18.7539C 112.695 19.2539 113.395 19.5039 114.238 19.5039C 115.543 19.5039 116.562 19.0312 117.297 18.0859L 118.961 19.9492C 118.453 20.668 117.766 21.2305 116.898 21.6367C 116.031 22.0352 115.07 22.2344 114.016 22.2344ZM 113.629 11.8281C 112.957 11.8281 112.41 12.0547 111.988 12.5078C 111.574 12.9609 111.309 13.6094 111.191 14.4531L 115.902 14.4531L 115.902 14.1836C 115.887 13.4336 115.684 12.8555 115.293 12.4492C 114.902 12.0352 114.348 11.8281 113.629 11.8281ZM 124.738 22L 121.34 22L 121.34 4L 124.738 4L 124.738 22ZM 10.5625 45.5234C 10.5625 44.8594 10.3281 44.3516 9.85938 44C 9.39062 43.6406 8.54688 43.2656 7.32812 42.875C 6.10938 42.4766 5.14453 42.0859 4.43359 41.7031C 2.49609 40.6562 1.52734 39.2461 1.52734 37.4727C 1.52734 36.5508 1.78516 35.7305 2.30078 35.0117C 2.82422 34.2852 3.57031 33.7188 4.53906 33.3125C 5.51562 32.9062 6.60938 32.7031 7.82031 32.7031C 9.03906 32.7031 10.125 32.9258 11.0781 33.3711C 12.0312 33.8086 12.7695 34.4297 13.293 35.2344C 13.8242 36.0391 14.0898 36.9531 14.0898 37.9766L 10.5742 37.9766C 10.5742 37.1953 10.3281 36.5898 9.83594 36.1602C 9.34375 35.7227 8.65234 35.5039 7.76172 35.5039C 6.90234 35.5039 6.23438 35.6875 5.75781 36.0547C 5.28125 36.4141 5.04297 36.8906 5.04297 37.4844C 5.04297 38.0391 5.32031 38.5039 5.875 38.8789C 6.4375 39.2539 7.26172 39.6055 8.34766 39.9336C 10.3477 40.5352 11.8047 41.2812 12.7188 42.1719C 13.6328 43.0625 14.0898 44.1719 14.0898 45.5C 14.0898 46.9766 13.5312 48.1367 12.4141 48.9805C 11.2969 49.8164 9.79297 50.2344 7.90234 50.2344C 6.58984 50.2344 5.39453 49.9961 4.31641 49.5195C 3.23828 49.0352 2.41406 48.375 1.84375 47.5391C 1.28125 46.7031 1 45.7344 1 44.6328L 4.52734 44.6328C 4.52734 46.5156 5.65234 47.457 7.90234 47.457C 8.73828 47.457 9.39062 47.2891 9.85938 46.9531C 10.3281 46.6094 10.5625 46.1328 10.5625 45.5234ZM 22.0938 50.2344C 20.2344 50.2344 18.7188 49.6641 17.5469 48.5234C 16.3828 47.3828 15.8008 45.8633 15.8008 43.9648L 15.8008 43.6367C 15.8008 42.3633 16.0469 41.2266 16.5391 40.2266C 17.0312 39.2188 17.7266 38.4453 18.625 37.9062C 19.5312 37.3594 20.5625 37.0859 21.7188 37.0859C 23.4531 37.0859 24.8164 37.6328 25.8086 38.7266C 26.8086 39.8203 27.3086 41.3711 27.3086 43.3789L 27.3086 44.7617L 19.2344 44.7617C 19.3438 45.5898 19.6719 46.2539 20.2188 46.7539C 20.7734 47.2539 21.4727 47.5039 22.3164 47.5039C 23.6211 47.5039 24.6406 47.0312 25.375 46.0859L 27.0391 47.9492C 26.5312 48.668 25.8438 49.2305 24.9766 49.6367C 24.1094 50.0352 23.1484 50.2344 22.0938 50.2344ZM 21.707 39.8281C 21.0352 39.8281 20.4883 40.0547 20.0664 40.5078C 19.6523 40.9609 19.3867 41.6094 19.2695 42.4531L 23.9805 42.4531L 23.9805 42.1836C 23.9648 41.4336 23.7617 40.8555 23.3711 40.4492C 22.9805 40.0352 22.4258 39.8281 21.707 39.8281ZM 32.8164 50L 29.418 50L 29.418 32L 32.8164 32L 32.8164 50ZM 41.4531 50.2344C 39.5938 50.2344 38.0781 49.6641 36.9062 48.5234C 35.7422 47.3828 35.1602 45.8633 35.1602 43.9648L 35.1602 43.6367C 35.1602 42.3633 35.4062 41.2266 35.8984 40.2266C 36.3906 39.2188 37.0859 38.4453 37.9844 37.9062C 38.8906 37.3594 39.9219 37.0859 41.0781 37.0859C 42.8125 37.0859 44.1758 37.6328 45.168 38.7266C 46.168 39.8203 46.668 41.3711 46.668 43.3789L 46.668 44.7617L 38.5938 44.7617C 38.7031 45.5898 39.0312 46.2539 39.5781 46.7539C 40.1328 47.2539 40.832 47.5039 41.6758 47.5039C 42.9805 47.5039 44 47.0312 44.7344 46.0859L 46.3984 47.9492C 45.8906 48.668 45.2031 49.2305 44.3359 49.6367C 43.4688 50.0352 42.5078 50.2344 41.4531 50.2344ZM 41.0664 39.8281C 40.3945 39.8281 39.8477 40.0547 39.4258 40.5078C 39.0117 40.9609 38.7461 41.6094 38.6289 42.4531L 43.3398 42.4531L 43.3398 42.1836C 43.3242 41.4336 43.1211 40.8555 42.7305 40.4492C 42.3398 40.0352 41.7852 39.8281 41.0664 39.8281ZM 53.875 47.5039C 54.5 47.5039 55.0078 47.332 55.3984 46.9883C 55.7891 46.6445 55.9922 46.1875 56.0078 45.6172L 59.1836 45.6172C 59.1758 46.4766 58.9414 47.2656 58.4805 47.9844C 58.0195 48.6953 57.3867 49.25 56.582 49.6484C 55.7852 50.0391 54.9023 50.2344 53.9336 50.2344C 52.1211 50.2344 50.6914 49.6602 49.6445 48.5117C 48.5977 47.3555 48.0742 45.7617 48.0742 43.7305L 48.0742 43.5078C 48.0742 41.5547 48.5938 39.9961 49.6328 38.832C 50.6719 37.668 52.0977 37.0859 53.9102 37.0859C 55.4961 37.0859 56.7656 37.5391 57.7188 38.4453C 58.6797 39.3438 59.168 40.543 59.1836 42.043L 56.0078 42.043C 55.9922 41.3867 55.7891 40.8555 55.3984 40.4492C 55.0078 40.0352 54.4922 39.8281 53.8516 39.8281C 53.0625 39.8281 52.4648 40.1172 52.0586 40.6953C 51.6602 41.2656 51.4609 42.1953 51.4609 43.4844L 51.4609 43.8359C 51.4609 45.1406 51.6602 46.0781 52.0586 46.6484C 52.457 47.2188 53.0625 47.5039 53.875 47.5039ZM 65.1719 34.2031L 65.1719 37.3203L 67.3398 37.3203L 67.3398 39.8047L 65.1719 39.8047L 65.1719 46.1328C 65.1719 46.6016 65.2617 46.9375 65.4414 47.1406C 65.6211 47.3438 65.9648 47.4453 66.4727 47.4453C 66.8477 47.4453 67.1797 47.418 67.4688 47.3633L 67.4688 49.9297C 66.8047 50.1328 66.1211 50.2344 65.418 50.2344C 63.043 50.2344 61.832 49.0352 61.7852 46.6367L 61.7852 39.8047L 59.9336 39.8047L 59.9336 37.3203L 61.7852 37.3203L 61.7852 34.2031L 65.1719 34.2031ZM 72.8008 50L 69.4023 50L 69.4023 37.3203L 72.8008 37.3203L 72.8008 50ZM 69.2031 34.0391C 69.2031 33.5312 69.3711 33.1133 69.707 32.7852C 70.0508 32.457 70.5156 32.293 71.1016 32.293C 71.6797 32.293 72.1406 32.457 72.4844 32.7852C 72.8281 33.1133 73 33.5312 73 34.0391C 73 34.5547 72.8242 34.9766 72.4727 35.3047C 72.1289 35.6328 71.6719 35.7969 71.1016 35.7969C 70.5312 35.7969 70.0703 35.6328 69.7188 35.3047C 69.375 34.9766 69.2031 34.5547 69.2031 34.0391ZM 75.0742 43.543C 75.0742 42.2852 75.3164 41.1641 75.8008 40.1797C 76.2852 39.1953 76.9805 38.4336 77.8867 37.8945C 78.8008 37.3555 79.8594 37.0859 81.0625 37.0859C 82.7734 37.0859 84.168 37.6094 85.2461 38.6562C 86.332 39.7031 86.9375 41.125 87.0625 42.9219L 87.0859 43.7891C 87.0859 45.7344 86.543 47.2969 85.457 48.4766C 84.3711 49.6484 82.9141 50.2344 81.0859 50.2344C 79.2578 50.2344 77.7969 49.6484 76.7031 48.4766C 75.6172 47.3047 75.0742 45.7109 75.0742 43.6953L 75.0742 43.543ZM 78.4609 43.7891C 78.4609 44.9922 78.6875 45.9141 79.1406 46.5547C 79.5938 47.1875 80.2422 47.5039 81.0859 47.5039C 81.9062 47.5039 82.5469 47.1914 83.0078 46.5664C 83.4688 45.9336 83.6992 44.9258 83.6992 43.543C 83.6992 42.3633 83.4688 41.4492 83.0078 40.8008C 82.5469 40.1523 81.8984 39.8281 81.0625 39.8281C 80.2344 39.8281 79.5938 40.1523 79.1406 40.8008C 78.6875 41.4414 78.4609 42.4375 78.4609 43.7891ZM 92.2891 37.3203L 92.3945 38.7852C 93.3008 37.6523 94.5156 37.0859 96.0391 37.0859C 97.3828 37.0859 98.3828 37.4805 99.0391 38.2695C 99.6953 39.0586 100.031 40.2383 100.047 41.8086L 100.047 50L 96.6602 50L 96.6602 41.8906C 96.6602 41.1719 96.5039 40.6523 96.1914 40.332C 95.8789 40.0039 95.3594 39.8398 94.6328 39.8398C 93.6797 39.8398 92.9648 40.2461 92.4883 41.0586L 92.4883 50L 89.1016 50L 89.1016 37.3203L 92.2891 37.3203ZM 103.691 51.4648L 101.172 51.4648L 107.453 32.9375L 109.973 32.9375L 103.691 51.4648ZM 124.668 35.7852L 119.441 35.7852L 119.441 50L 115.926 50L 115.926 35.7852L 110.77 35.7852L 110.77 32.9375L 124.668 32.9375L 124.668 35.7852ZM 133.281 48.7109C 132.445 49.7266 131.289 50.2344 129.812 50.2344C 128.453 50.2344 127.414 49.8438 126.695 49.0625C 125.984 48.2812 125.621 47.1367 125.605 45.6289L 125.605 37.3203L 128.992 37.3203L 128.992 45.5117C 128.992 46.832 129.594 47.4922 130.797 47.4922C 131.945 47.4922 132.734 47.0938 133.164 46.2969L 133.164 37.3203L 136.562 37.3203L 136.562 50L 133.375 50L 133.281 48.7109ZM 142.234 37.3203L 142.34 38.7852C 143.246 37.6523 144.461 37.0859 145.984 37.0859C 147.328 37.0859 148.328 37.4805 148.984 38.2695C 149.641 39.0586 149.977 40.2383 149.992 41.8086L 149.992 50L 146.605 50L 146.605 41.8906C 146.605 41.1719 146.449 40.6523 146.137 40.332C 145.824 40.0039 145.305 39.8398 144.578 39.8398C 143.625 39.8398 142.91 40.2461 142.434 41.0586L 142.434 50L 139.047 50L 139.047 37.3203L 142.234 37.3203ZM 156.145 50L 152.746 50L 152.746 37.3203L 156.145 37.3203L 156.145 50ZM 152.547 34.0391C 152.547 33.5312 152.715 33.1133 153.051 32.7852C 153.395 32.457 153.859 32.293 154.445 32.293C 155.023 32.293 155.484 32.457 155.828 32.7852C 156.172 33.1133 156.344 33.5312 156.344 34.0391C 156.344 34.5547 156.168 34.9766 155.816 35.3047C 155.473 35.6328 155.016 35.7969 154.445 35.7969C 153.875 35.7969 153.414 35.6328 153.062 35.3047C 152.719 34.9766 152.547 34.5547 152.547 34.0391ZM 162.062 37.3203L 162.168 38.7852C 163.074 37.6523 164.289 37.0859 165.812 37.0859C 167.156 37.0859 168.156 37.4805 168.812 38.2695C 169.469 39.0586 169.805 40.2383 169.82 41.8086L 169.82 50L 166.434 50L 166.434 41.8906C 166.434 41.1719 166.277 40.6523 165.965 40.332C 165.652 40.0039 165.133 39.8398 164.406 39.8398C 163.453 39.8398 162.738 40.2461 162.262 41.0586L 162.262 50L 158.875 50L 158.875 37.3203L 162.062 37.3203ZM 171.906 43.5664C 171.906 41.6211 172.367 40.0547 173.289 38.8672C 174.219 37.6797 175.469 37.0859 177.039 37.0859C 178.43 37.0859 179.512 37.5625 180.285 38.5156L 180.426 37.3203L 183.496 37.3203L 183.496 49.5781C 183.496 50.6875 183.242 51.6523 182.734 52.4727C 182.234 53.293 181.527 53.918 180.613 54.3477C 179.699 54.7773 178.629 54.9922 177.402 54.9922C 176.473 54.9922 175.566 54.8047 174.684 54.4297C 173.801 54.0625 173.133 53.5859 172.68 53L 174.18 50.9375C 175.023 51.8828 176.047 52.3555 177.25 52.3555C 178.148 52.3555 178.848 52.1133 179.348 51.6289C 179.848 51.1523 180.098 50.4727 180.098 49.5898L 180.098 48.9102C 179.316 49.793 178.289 50.2344 177.016 50.2344C 175.492 50.2344 174.258 49.6406 173.312 48.4531C 172.375 47.2578 171.906 45.6758 171.906 43.707L 171.906 43.5664ZM 175.293 43.8125C 175.293 44.9609 175.523 45.8633 175.984 46.5195C 176.445 47.168 177.078 47.4922 177.883 47.4922C 178.914 47.4922 179.652 47.1055 180.098 46.332L 180.098 41C 179.645 40.2266 178.914 39.8398 177.906 39.8398C 177.094 39.8398 176.453 40.1719 175.984 40.8359C 175.523 41.5 175.293 42.4922 175.293 43.8125Z"/>
<path id="path16_fill" d="M 23.375 17.5234C 23.375 16.8594 23.1406 16.3516 22.6719 16C 22.2031 15.6406 21.3594 15.2656 20.1406 14.875C 18.9219 14.4766 17.957 14.0859 17.2461 13.7031C 15.3086 12.6562 14.3398 11.2461 14.3398 9.47266C 14.3398 8.55078 14.5977 7.73047 15.1133 7.01172C 15.6367 6.28516 16.3828 5.71875 17.3516 5.3125C 18.3281 4.90625 19.4219 4.70312 20.6328 4.70312C 21.8516 4.70312 22.9375 4.92578 23.8906 5.37109C 24.8438 5.80859 25.582 6.42969 26.1055 7.23438C 26.6367 8.03906 26.9023 8.95312 26.9023 9.97656L 23.3867 9.97656C 23.3867 9.19531 23.1406 8.58984 22.6484 8.16016C 22.1562 7.72266 21.4648 7.50391 20.5742 7.50391C 19.7148 7.50391 19.0469 7.6875 18.5703 8.05469C 18.0938 8.41406 17.8555 8.89062 17.8555 9.48438C 17.8555 10.0391 18.1328 10.5039 18.6875 10.8789C 19.25 11.2539 20.0742 11.6055 21.1602 11.9336C 23.1602 12.5352 24.6172 13.2812 25.5312 14.1719C 26.4453 15.0625 26.9023 16.1719 26.9023 17.5C 26.9023 18.9766 26.3438 20.1367 25.2266 20.9805C 24.1094 21.8164 22.6055 22.2344 20.7148 22.2344C 19.4023 22.2344 18.207 21.9961 17.1289 21.5195C 16.0508 21.0352 15.2266 20.375 14.6562 19.5391C 14.0938 18.7031 13.8125 17.7344 13.8125 16.6328L 17.3398 16.6328C 17.3398 18.5156 18.4648 19.457 20.7148 19.457C 21.5508 19.457 22.2031 19.2891 22.6719 18.9531C 23.1406 18.6094 23.375 18.1328 23.375 17.5234ZM 36.6641 20.7109C 35.8281 21.7266 34.6719 22.2344 33.1953 22.2344C 31.8359 22.2344 30.7969 21.8438 30.0781 21.0625C 29.3672 20.2812 29.0039 19.1367 28.9883 17.6289L 28.9883 9.32031L 32.375 9.32031L 32.375 17.5117C 32.375 18.832 32.9766 19.4922 34.1797 19.4922C 35.3281 19.4922 36.1172 19.0938 36.5469 18.2969L 36.5469 9.32031L 39.9453 9.32031L 39.9453 22L 36.7578 22L 36.6641 20.7109ZM 53.9258 15.7773C 53.9258 17.8086 53.4922 19.3945 52.625 20.5352C 51.7578 21.668 50.5469 22.2344 48.9922 22.2344C 47.6172 22.2344 46.5195 21.707 45.6992 20.6523L 45.5469 22L 42.5 22L 42.5 4L 45.8867 4L 45.8867 10.457C 46.668 9.54297 47.6953 9.08594 48.9688 9.08594C 50.5156 9.08594 51.7266 9.65625 52.6016 10.7969C 53.4844 11.9297 53.9258 13.5273 53.9258 15.5898L 53.9258 15.7773ZM 50.5391 15.5312C 50.5391 14.25 50.3359 13.3164 49.9297 12.7305C 49.5234 12.1367 48.918 11.8398 48.1133 11.8398C 47.0352 11.8398 46.293 12.2812 45.8867 13.1641L 45.8867 18.168C 46.3008 19.0586 47.0508 19.5039 48.1367 19.5039C 49.2305 19.5039 49.9492 18.9648 50.293 17.8867C 50.457 17.3711 50.5391 16.5859 50.5391 15.5312ZM 59.1992 9.32031L 59.3047 10.7383C 60.2031 9.63672 61.418 9.08594 62.9492 9.08594C 64.582 9.08594 65.7031 9.73047 66.3125 11.0195C 67.2031 9.73047 68.4727 9.08594 70.1211 9.08594C 71.4961 9.08594 72.5195 9.48828 73.1914 10.293C 73.8633 11.0898 74.1992 12.293 74.1992 13.9023L 74.1992 22L 70.8008 22L 70.8008 13.9141C 70.8008 13.1953 70.6602 12.6719 70.3789 12.3438C 70.0977 12.0078 69.6016 11.8398 68.8906 11.8398C 67.875 11.8398 67.1719 12.3242 66.7812 13.293L 66.793 22L 63.4062 22L 63.4062 13.9258C 63.4062 13.1914 63.2617 12.6602 62.9727 12.332C 62.6836 12.0039 62.1914 11.8398 61.4961 11.8398C 60.5352 11.8398 59.8398 12.2383 59.4102 13.0352L 59.4102 22L 56.0234 22L 56.0234 9.32031L 59.1992 9.32031ZM 80.3867 22L 76.9883 22L 76.9883 9.32031L 80.3867 9.32031L 80.3867 22ZM 76.7891 6.03906C 76.7891 5.53125 76.957 5.11328 77.293 4.78516C 77.6367 4.45703 78.1016 4.29297 78.6875 4.29297C 79.2656 4.29297 79.7266 4.45703 80.0703 4.78516C 80.4141 5.11328 80.5859 5.53125 80.5859 6.03906C 80.5859 6.55469 80.4102 6.97656 80.0586 7.30469C 79.7148 7.63281 79.2578 7.79688 78.6875 7.79688C 78.1172 7.79688 77.6562 7.63281 77.3047 7.30469C 76.9609 6.97656 76.7891 6.55469 76.7891 6.03906ZM 87.2422 6.20312L 87.2422 9.32031L 89.4102 9.32031L 89.4102 11.8047L 87.2422 11.8047L 87.2422 18.1328C 87.2422 18.6016 87.332 18.9375 87.5117 19.1406C 87.6914 19.3438 88.0352 19.4453 88.543 19.4453C 88.918 19.4453 89.25 19.418 89.5391 19.3633L 89.5391 21.9297C 88.875 22.1328 88.1914 22.2344 87.4883 22.2344C 85.1133 22.2344 83.9023 21.0352 83.8555 18.6367L 83.8555 11.8047L 82.0039 11.8047L 82.0039 9.32031L 83.8555 9.32031L 83.8555 6.20312L 87.2422 6.20312ZM 5.76172 34.2031L 5.76172 37.3203L 7.92969 37.3203L 7.92969 39.8047L 5.76172 39.8047L 5.76172 46.1328C 5.76172 46.6016 5.85156 46.9375 6.03125 47.1406C 6.21094 47.3438 6.55469 47.4453 7.0625 47.4453C 7.4375 47.4453 7.76953 47.418 8.05859 47.3633L 8.05859 49.9297C 7.39453 50.1328 6.71094 50.2344 6.00781 50.2344C 3.63281 50.2344 2.42188 49.0352 2.375 46.6367L 2.375 39.8047L 0.523438 39.8047L 0.523438 37.3203L 2.375 37.3203L 2.375 34.2031L 5.76172 34.2031ZM 8.9375 43.543C 8.9375 42.2852 9.17969 41.1641 9.66406 40.1797C 10.1484 39.1953 10.8438 38.4336 11.75 37.8945C 12.6641 37.3555 13.7227 37.0859 14.9258 37.0859C 16.6367 37.0859 18.0312 37.6094 19.1094 38.6562C 20.1953 39.7031 20.8008 41.125 20.9258 42.9219L 20.9492 43.7891C 20.9492 45.7344 20.4062 47.2969 19.3203 48.4766C 18.2344 49.6484 16.7773 50.2344 14.9492 50.2344C 13.1211 50.2344 11.6602 49.6484 10.5664 48.4766C 9.48047 47.3047 8.9375 45.7109 8.9375 43.6953L 8.9375 43.543ZM 12.3242 43.7891C 12.3242 44.9922 12.5508 45.9141 13.0039 46.5547C 13.457 47.1875 14.1055 47.5039 14.9492 47.5039C 15.7695 47.5039 16.4102 47.1914 16.8711 46.5664C 17.332 45.9336 17.5625 44.9258 17.5625 43.543C 17.5625 42.3633 17.332 41.4492 16.8711 40.8008C 16.4102 40.1523 15.7617 39.8281 14.9258 39.8281C 14.0977 39.8281 13.457 40.1523 13.0039 40.8008C 12.5508 41.4414 12.3242 42.4375 12.3242 43.7891ZM 34.5781 43.1562L 32.75 45.125L 32.75 50L 29.2344 50L 29.2344 32.9375L 32.75 32.9375L 32.75 40.6719L 34.2969 38.5508L 38.6445 32.9375L 42.9688 32.9375L 36.9102 40.5195L 43.1445 50L 38.9609 50L 34.5781 43.1562ZM 51.5938 50C 51.4375 49.6953 51.3242 49.3164 51.2539 48.8633C 50.4336 49.7773 49.3672 50.2344 48.0547 50.2344C 46.8125 50.2344 45.7812 49.875 44.9609 49.1562C 44.1484 48.4375 43.7422 47.5312 43.7422 46.4375C 43.7422 45.0938 44.2383 44.0625 45.2305 43.3438C 46.2305 42.625 47.6719 42.2617 49.5547 42.2539L 51.1133 42.2539L 51.1133 41.5273C 51.1133 40.9414 50.9609 40.4727 50.6562 40.1211C 50.3594 39.7695 49.8867 39.5938 49.2383 39.5938C 48.668 39.5938 48.2188 39.7305 47.8906 40.0039C 47.5703 40.2773 47.4102 40.6523 47.4102 41.1289L 44.0234 41.1289C 44.0234 40.3945 44.25 39.7148 44.7031 39.0898C 45.1562 38.4648 45.7969 37.9766 46.625 37.625C 47.4531 37.2656 48.3828 37.0859 49.4141 37.0859C 50.9766 37.0859 52.2148 37.4805 53.1289 38.2695C 54.0508 39.0508 54.5117 40.1523 54.5117 41.5742L 54.5117 47.0703C 54.5195 48.2734 54.6875 49.1836 55.0156 49.8008L 55.0156 50L 51.5938 50ZM 48.793 47.6445C 49.293 47.6445 49.7539 47.5352 50.1758 47.3164C 50.5977 47.0898 50.9102 46.7891 51.1133 46.4141L 51.1133 44.2344L 49.8477 44.2344C 48.1523 44.2344 47.25 44.8203 47.1406 45.9922L 47.1289 46.1914C 47.1289 46.6133 47.2773 46.9609 47.5742 47.2344C 47.8711 47.5078 48.2773 47.6445 48.793 47.6445ZM 56.6211 43.5664C 56.6211 41.6211 57.082 40.0547 58.0039 38.8672C 58.9336 37.6797 60.1836 37.0859 61.7539 37.0859C 63.1445 37.0859 64.2266 37.5625 65 38.5156L 65.1406 37.3203L 68.2109 37.3203L 68.2109 49.5781C 68.2109 50.6875 67.957 51.6523 67.4492 52.4727C 66.9492 53.293 66.2422 53.918 65.3281 54.3477C 64.4141 54.7773 63.3438 54.9922 62.1172 54.9922C 61.1875 54.9922 60.2812 54.8047 59.3984 54.4297C 58.5156 54.0625 57.8477 53.5859 57.3945 53L 58.8945 50.9375C 59.7383 51.8828 60.7617 52.3555 61.9648 52.3555C 62.8633 52.3555 63.5625 52.1133 64.0625 51.6289C 64.5625 51.1523 64.8125 50.4727 64.8125 49.5898L 64.8125 48.9102C 64.0312 49.793 63.0039 50.2344 61.7305 50.2344C 60.207 50.2344 58.9727 49.6406 58.0273 48.4531C 57.0898 47.2578 56.6211 45.6758 56.6211 43.707L 56.6211 43.5664ZM 60.0078 43.8125C 60.0078 44.9609 60.2383 45.8633 60.6992 46.5195C 61.1602 47.168 61.793 47.4922 62.5977 47.4922C 63.6289 47.4922 64.3672 47.1055 64.8125 46.332L 64.8125 41C 64.3594 40.2266 63.6289 39.8398 62.6211 39.8398C 61.8086 39.8398 61.168 40.1719 60.6992 40.8359C 60.2383 41.5 60.0078 42.4922 60.0078 43.8125ZM 70.332 43.5664C 70.332 41.6211 70.793 40.0547 71.7148 38.8672C 72.6445 37.6797 73.8945 37.0859 75.4648 37.0859C 76.8555 37.0859 77.9375 37.5625 78.7109 38.5156L 78.8516 37.3203L 81.9219 37.3203L 81.9219 49.5781C 81.9219 50.6875 81.668 51.6523 81.1602 52.4727C 80.6602 53.293 79.9531 53.918 79.0391 54.3477C 78.125 54.7773 77.0547 54.9922 75.8281 54.9922C 74.8984 54.9922 73.9922 54.8047 73.1094 54.4297C 72.2266 54.0625 71.5586 53.5859 71.1055 53L 72.6055 50.9375C 73.4492 51.8828 74.4727 52.3555 75.6758 52.3555C 76.5742 52.3555 77.2734 52.1133 77.7734 51.6289C 78.2734 51.1523 78.5234 50.4727 78.5234 49.5898L 78.5234 48.9102C 77.7422 49.793 76.7148 50.2344 75.4414 50.2344C 73.918 50.2344 72.6836 49.6406 71.7383 48.4531C 70.8008 47.2578 70.332 45.6758 70.332 43.707L 70.332 43.5664ZM 73.7188 43.8125C 73.7188 44.9609 73.9492 45.8633 74.4102 46.5195C 74.8711 47.168 75.5039 47.4922 76.3086 47.4922C 77.3398 47.4922 78.0781 47.1055 78.5234 46.332L 78.5234 41C 78.0703 40.2266 77.3398 39.8398 76.332 39.8398C 75.5195 39.8398 74.8789 40.1719 74.4102 40.8359C 73.9492 41.5 73.7188 42.4922 73.7188 43.8125ZM 88.1094 50L 84.7109 50L 84.7109 32L 88.1094 32L 88.1094 50ZM 96.7461 50.2344C 94.8867 50.2344 93.3711 49.6641 92.1992 48.5234C 91.0352 47.3828 90.4531 45.8633 90.4531 43.9648L 90.4531 43.6367C 90.4531 42.3633 90.6992 41.2266 91.1914 40.2266C 91.6836 39.2188 92.3789 38.4453 93.2773 37.9062C 94.1836 37.3594 95.2148 37.0859 96.3711 37.0859C 98.1055 37.0859 99.4688 37.6328 100.461 38.7266C 101.461 39.8203 101.961 41.3711 101.961 43.3789L 101.961 44.7617L 93.8867 44.7617C 93.9961 45.5898 94.3242 46.2539 94.8711 46.7539C 95.4258 47.2539 96.125 47.5039 96.9688 47.5039C 98.2734 47.5039 99.293 47.0312 100.027 46.0859L 101.691 47.9492C 101.184 48.668 100.496 49.2305 99.6289 49.6367C 98.7617 50.0352 97.8008 50.2344 96.7461 50.2344ZM 96.3594 39.8281C 95.6875 39.8281 95.1406 40.0547 94.7188 40.5078C 94.3047 40.9609 94.0391 41.6094 93.9219 42.4531L 98.6328 42.4531L 98.6328 42.1836C 98.6172 41.4336 98.4141 40.8555 98.0234 40.4492C 97.6328 40.0352 97.0781 39.8281 96.3594 39.8281Z"/>
</defs>
</svg>
